<svg width="657" height="525" viewBox="0 0 657 525" fill="none" xmlns="http://www.w3.org/2000/svg">
<g id="Group 44">
<g id="Group 43">
<path id="Rectangle 5" d="M129.124 274.641H100.43V360.211H129.124V274.641Z" fill="url(#paint0_linear)"/>
<path id="Rectangle 6" d="M129.716 274.641H97.858V358.674H129.716V274.641Z" fill="#482F1D"/>
<path id="Path 405" d="M115.546 206.029L0 312.047H231.091L115.546 206.029Z" fill="url(#paint1_linear)"/>
<path id="Path 406" d="M115.546 208.811L4.612 309.211H226.48L115.546 208.811Z" fill="#18461B"/>
<path id="Path 407" d="M115.29 166.322L14.86 265.422H215.72L115.29 166.322Z" fill="url(#paint2_linear)"/>
<path id="Path 408" d="M115.29 169.018L18.959 264.069H211.621L115.29 169.018Z" fill="#18461B"/>
<path id="Path 409" d="M114.778 130.313L37.406 218.787H192.149L114.778 130.313Z" fill="url(#paint3_linear)"/>
<path id="Path 410" d="M114.777 134.356L40.992 216.77H188.562L114.777 134.356Z" fill="#18461B"/>
<path id="Path 411" d="M114.777 98.386L56.877 175.749H172.677L114.777 98.386Z" fill="url(#paint4_linear)"/>
<path id="Path 412" d="M114.777 100.669L59.44 174.607H170.116L114.777 100.669Z" fill="#18461B"/>
<path id="Path 413" d="M115.29 65.071L75.351 134.244H155.226L115.29 65.071Z" fill="url(#paint5_linear)"/>
<path id="Path 414" d="M115.289 67.12L77.127 133.22H153.452L115.289 67.12Z" fill="#18461B"/>
<path id="Path 449" d="M134.381 229.851C134.068 228.366 132.975 227.312 131.959 227.507C130.943 227.702 130.396 229.107 130.709 230.594C131.022 232.081 132.115 233.134 133.131 232.938C134.147 232.742 134.693 231.376 134.381 229.851Z" fill="url(#paint6_linear)"/>
</g>
<g id="Group 42">
<g id="Group 41">
<path id="Path 191" d="M264.758 476.834C264.758 476.834 262.601 483.244 259.933 485.129C258.693 486.008 257.338 485.897 256.045 483.713C255.424 482.764 255.087 481.657 255.074 480.523C255.197 476.232 262.018 474.984 262.018 474.984C264.09 474.385 264.758 476.834 264.758 476.834Z" fill="#363340"/>
<path id="Path 192" d="M325.344 482.795C325.12 483.163 324.863 483.51 324.576 483.831C323.041 485.57 321.551 484.875 320.104 482.607C319.948 482.351 319.791 482.086 319.632 481.812C317.805 478.512 323.144 477.786 323.144 477.786C323.144 477.786 327.298 479.563 325.344 482.795Z" fill="#363340"/>
<path id="Path 193" d="M316.677 485.935H316.59C304.875 488.399 272.041 494.667 264.057 489.39C258.564 485.755 259.938 482.408 262.195 480.178C263.982 478.426 266.329 477.359 268.824 477.165C277.748 476.451 307.304 474.148 316.942 474.973C317.918 474.981 318.883 475.181 319.782 475.56C320.248 475.881 320.646 476.291 320.952 476.767C321.259 477.242 321.468 477.774 321.567 478.331C321.919 479.987 321.602 481.714 320.686 483.138C319.771 484.561 318.33 485.565 316.677 485.931V485.935Z" fill="#89555B"/>
<path id="Path 194" opacity="0.1" d="M316.676 485.935C315.516 485.087 314.704 483.845 314.392 482.442C314.122 480.575 314.5 478.671 315.463 477.049C315.848 476.286 316.346 475.586 316.941 474.972C317.917 474.98 318.882 475.18 319.781 475.559C320.247 475.88 320.645 476.29 320.951 476.766C321.258 477.241 321.467 477.773 321.566 478.33C321.919 479.986 321.603 481.715 320.687 483.14C319.772 484.564 318.33 485.569 316.676 485.935V485.935Z" fill="black"/>
<path id="Path 195" opacity="0.1" d="M262.851 484.534C262.912 483.582 263.979 482.999 264.218 482.066C264.299 481.759 264.299 481.402 264.529 481.191C264.703 481.062 264.912 480.99 265.129 480.984C266.284 480.783 267.459 480.721 268.629 480.8C269.397 480.905 270.156 481.072 270.897 481.3L274.636 482.333C274.743 482.353 274.843 482.402 274.924 482.475C275.17 482.744 274.755 483.135 274.394 483.181C273.629 483.154 272.874 482.998 272.16 482.72C271.154 482.61 270.142 482.569 269.131 482.597C268.402 482.543 267.688 482.355 266.958 482.305C266.225 482.211 265.483 482.398 264.881 482.827C264.59 483.051 264.391 483.373 264.32 483.734C264.25 484.094 264.313 484.468 264.497 484.785C264.927 485.38 264.954 486.029 263.944 485.852C263.635 485.797 263.356 485.635 263.156 485.393C262.956 485.152 262.848 484.848 262.851 484.534V484.534Z" fill="black"/>
<path id="Path 196" opacity="0.1" d="M267.069 484.952C267.538 485.029 268.016 485.041 268.489 484.987C269.733 485.025 270.746 486.004 271.944 486.3C272.744 486.492 273.598 486.373 274.416 486.511C275.011 486.611 275.567 486.849 276.162 486.991C278.058 487.306 280.005 487.079 281.778 486.335C281.644 485.771 280.96 485.567 280.389 485.483L271.081 483.948C269.934 483.72 268.76 483.658 267.596 483.764C267.296 483.798 266.609 483.764 266.475 484.033C266.302 484.392 266.77 484.86 267.069 484.952Z" fill="black"/>
<path id="Path 197" opacity="0.1" d="M308.236 478.561C307.142 478.461 306.094 478.081 305.012 477.889C304.478 477.756 303.923 477.73 303.379 477.813C302.834 477.895 302.312 478.084 301.841 478.369C303.561 479.563 305.775 479.693 307.848 479.997C308.119 480.015 308.382 480.096 308.616 480.235C308.73 480.308 308.817 480.415 308.865 480.541C308.912 480.667 308.918 480.805 308.881 480.935C308.743 481.284 308.274 481.319 307.898 481.319C307.858 481.407 307.836 481.501 307.834 481.598C307.831 481.694 307.849 481.79 307.885 481.879C307.921 481.969 307.974 482.05 308.043 482.118C308.111 482.186 308.192 482.239 308.282 482.275C308.472 482.333 308.671 482.353 308.869 482.334C309.067 482.314 309.258 482.255 309.433 482.16C309.777 481.969 310.133 481.801 310.5 481.66C311.299 481.531 312.118 481.606 312.88 481.879C313.263 482.011 313.671 482.048 314.072 481.989C314.472 481.929 314.852 481.774 315.18 481.537C315.337 481.398 315.436 481.205 315.456 480.996C315.506 480.025 313.026 479.496 312.328 479.146C311.003 478.469 309.664 478.688 308.236 478.561Z" fill="black"/>
<path id="Path 198" d="M264.24 492.999C264.075 493.291 263.415 493.425 262.501 493.444C260.602 493.423 258.713 493.181 256.87 492.722C255.897 492.54 254.966 492.181 254.122 491.663C253.998 491.567 253.912 491.431 253.876 491.279C253.561 489.763 258.501 486.612 258.759 486.579C259.268 486.517 259.781 486.495 260.294 486.514C265.464 486.749 264.819 491.969 264.24 492.999Z" fill="#363340"/>
<path id="Path 199" opacity="0.1" d="M262.501 493.447C260.602 493.426 258.713 493.184 256.87 492.725C257.144 492.53 257.436 492.36 257.741 492.218C260.16 491.938 261.626 492.522 262.501 493.447Z" fill="black"/>
<path id="Path 200" d="M257.742 492.595C257.462 492.63 251.558 496.41 253.105 497.677C254.652 498.944 262.59 500.137 263.223 499.013C263.856 497.889 264.559 491.804 257.742 492.595Z" fill="#363340"/>
<path id="Path 201" opacity="0.1" d="M324.576 483.831C323.041 485.57 321.551 484.875 320.104 482.607C320.805 482.292 321.545 482.074 322.304 481.958C322.712 482.148 323.098 482.383 323.455 482.658C323.899 482.976 324.28 483.373 324.58 483.829L324.576 483.831Z" fill="black"/>
<path id="Path 202" d="M324.488 487.435C323.536 488.993 322.603 489.588 321.688 489.416C320.702 489.232 319.738 488.161 318.794 486.453C316.967 483.153 322.306 482.427 322.306 482.427C322.715 482.617 323.101 482.852 323.458 483.127C324.53 483.931 325.728 485.389 324.488 487.435Z" fill="#363340"/>
<path id="Path 203" d="M321.717 496.36C321.068 498.329 317.879 498.886 315.576 499.266C314.913 499.351 314.257 499.479 313.611 499.65C311.922 500.214 299.624 500.214 299.624 500.214H272.98C272.98 500.214 266.455 501.968 262.509 499.514C261.959 499.235 261.475 498.842 261.09 498.36C260.705 497.879 260.427 497.321 260.275 496.723C260.159 495.924 260.258 495.109 260.563 494.362C260.802 493.729 261.092 493.117 261.43 492.531C261.845 491.802 262.33 491.031 262.846 490.231L262.869 490.196C265.322 486.45 270.246 488.896 272.557 488.684C274.868 488.472 278.898 488.07 278.898 488.07C278.898 488.07 311.498 485.894 318.011 484.77C318.328 484.714 318.649 484.685 318.971 484.682C324.304 484.68 322.546 493.831 321.717 496.36Z" fill="#89555B"/>
<path id="Path 204" opacity="0.1" d="M273.846 494.108C272.192 495.908 269.624 495.785 267.321 495.766L263.129 495.728C262.639 495.697 262.148 495.746 261.674 495.874C261.438 495.942 261.222 496.065 261.044 496.233C260.866 496.401 260.73 496.61 260.649 496.841C260.53 496.81 260.407 496.776 260.288 496.734C260.172 495.935 260.271 495.12 260.576 494.373C261.199 494.468 261.827 494.516 262.457 494.519C263.324 494.438 264.1 493.928 264.957 493.782C266.178 493.571 267.398 494.116 268.638 494.189C270.381 494.287 272.216 493.45 273.846 494.108Z" fill="black"/>
<path id="Path 205" opacity="0.1" d="M289.381 489.654C288.29 489.917 287.215 490.241 286.161 490.625C283.182 491.469 279.997 490.878 276.914 491.174C273.575 491.496 270.197 492.851 266.961 491.942C266.427 491.796 265.809 491.604 265.361 491.942C265.226 492.07 265.097 492.206 264.977 492.349C264.685 492.55 264.353 492.685 264.004 492.747C263.655 492.808 263.297 492.794 262.954 492.706L261.446 492.533C261.861 491.804 262.346 491.033 262.862 490.233L262.885 490.198C263.551 489.841 264.304 489.677 265.058 489.722C265.925 489.931 266.772 490.219 267.587 490.582C269.811 491.079 272.121 491.041 274.327 490.471C276.672 490.003 279.106 490.325 281.478 489.871C282.188 489.737 282.891 489.571 283.604 489.453C285.523 489.145 287.484 489.213 289.377 489.653L289.381 489.654Z" fill="black"/>
<path id="Path 206" opacity="0.1" d="M298.824 490.748C299.137 490.704 299.439 490.603 299.715 490.448C299.981 490.248 300.22 490.015 300.425 489.753C300.889 489.263 301.476 488.908 302.125 488.724C301.925 489.365 301.806 490.224 302.382 490.566C302.73 490.699 303.104 490.756 303.476 490.731C303.86 490.769 304.267 491.031 304.209 491.399C304.151 491.767 303.745 491.871 303.409 491.933C302.178 492.219 300.914 492.335 299.651 492.278C298.434 492.163 297.191 491.733 296.02 492.086C295.456 492.259 293.506 492.723 294.849 491.741C295.861 491.009 297.635 490.99 298.824 490.748Z" fill="black"/>
<path id="Path 207" opacity="0.1" d="M321.716 496.359C321.067 498.328 317.878 498.885 315.575 499.265C315.411 498.994 315.282 498.704 315.191 498.401C315.045 497.75 315.014 497.079 315.099 496.417C315.199 495.004 315.337 493.597 315.514 492.195C315.645 490.226 316.198 488.308 317.138 486.572C317.607 485.818 318.231 485.173 318.969 484.68C324.304 484.679 322.546 493.83 321.716 496.359Z" fill="black"/>
<path id="Path 208" d="M317.226 505.695C316.081 506.148 314.9 506.505 313.695 506.762C310.785 507.376 307.043 507.441 306.402 503.983C305.35 498.195 309.857 496.883 309.857 496.883L315.127 499.992L317.226 505.695Z" fill="#363340"/>
<path id="Path 209" d="M306.843 507.802C306.263 508.865 302.118 509.302 299.5 509.464C298.993 509.495 298.54 509.518 298.187 509.533L297.358 509.56C297.078 509.56 287.658 509.56 288.292 503.092C288.342 501.896 288.829 500.761 289.661 499.901C290.494 499.041 291.613 498.517 292.806 498.428C294.182 498.242 295.58 498.299 296.936 498.597C296.936 498.597 303.611 499.088 305.536 500.42C306.053 500.896 306.469 501.471 306.761 502.11C307.053 502.749 307.215 503.441 307.236 504.143C307.439 505.376 307.303 506.64 306.843 507.802Z" fill="#363340"/>
<path id="Path 210" opacity="0.1" d="M259.933 485.117C258.693 485.996 257.338 485.885 256.045 483.701C255.424 482.752 255.087 481.645 255.074 480.511C256.108 480.65 257.124 480.898 258.106 481.252C258.636 481.517 259.431 483.24 259.933 485.117Z" fill="black"/>
<path id="Path 211" opacity="0.1" d="M260.091 490.433C259.224 491.489 256.03 491.615 253.865 491.281C253.55 489.765 258.49 486.613 258.748 486.581C259.257 486.519 259.77 486.497 260.283 486.516C260.608 488.165 260.663 489.75 260.091 490.433Z" fill="black"/>
<path id="Path 212" d="M259.915 490.246C258.587 491.862 251.831 491.302 251.62 490.246C251.464 489.843 251.207 489.487 250.875 489.21C249.682 488.205 248.608 487.067 247.675 485.817C247.508 485.552 247.369 485.27 247.26 484.976C246.416 482.676 252.319 480.259 252.319 480.259C252.319 480.259 256.887 480.831 258.011 481.41C259.135 481.989 261.242 488.63 259.915 490.246Z" fill="#363340"/>
<path id="Path 213" opacity="0.1" d="M250.878 489.209C249.685 488.204 248.611 487.066 247.678 485.816C248.507 485.959 249.267 486.367 249.844 486.979C250.421 487.591 250.784 488.373 250.878 489.209Z" fill="black"/>
<path id="Path 214" d="M250.283 492.352C249.65 493.477 241.708 492.283 240.165 491.016C240.084 490.954 240.018 490.875 239.973 490.784C239.928 490.692 239.904 490.592 239.904 490.49C239.904 488.928 244.552 485.964 244.804 485.934C249.08 485.434 250.397 487.646 250.627 489.634C250.755 490.554 250.636 491.492 250.283 492.352V492.352Z" fill="#363340"/>
<path id="Path 215" d="M254.271 493.561C253.638 494.682 245.7 493.492 244.153 492.225C244.072 492.163 244.007 492.082 243.962 491.99C243.918 491.898 243.895 491.797 243.896 491.695C243.896 490.137 248.544 487.169 248.79 487.143C253.066 486.643 254.383 488.851 254.613 490.843C254.742 491.763 254.624 492.701 254.271 493.561V493.561Z" fill="#363340"/>
<path id="Path 216" opacity="0.1" d="M250.283 492.352C249.65 493.477 241.708 492.283 240.165 491.016C240.084 490.954 240.018 490.875 239.973 490.784C239.928 490.692 239.904 490.592 239.904 490.49C241.63 489.883 243.491 489.77 245.278 490.164C247.017 489.7 248.821 489.523 250.617 489.638C250.747 490.556 250.632 491.493 250.283 492.352V492.352Z" fill="black"/>
<path id="Path 217" d="M258.225 499.267C258.032 499.535 257.823 499.792 257.599 500.035C256.477 501.277 255.185 502.354 253.761 503.235C252.59 503.968 249.972 503.891 247.074 503.458C242.203 502.729 236.545 500.998 235.666 500.426C234.266 499.512 234.822 496.277 237.424 492.749C240.026 489.221 245.285 490.527 245.285 490.527C258.77 487.251 258.225 499.267 258.225 499.267Z" fill="#363340"/>
<path id="Path 218" opacity="0.1" d="M257.6 500.049C256.478 501.291 255.186 502.368 253.762 503.249C252.591 503.982 249.973 503.905 247.075 503.472C246.923 502.654 246.875 501.819 246.933 500.989C247.213 495.089 251.708 496.195 251.708 496.195C253.86 497.166 255.848 498.466 257.6 500.049V500.049Z" fill="black"/>
<path id="Path 219" d="M253.523 506.248C253.09 506.35 252.647 506.4 252.203 506.398C249.881 506.329 246.649 507.166 246.933 501.27C247.217 495.374 251.708 496.47 251.708 496.47C253.304 497.214 254.822 498.114 256.241 499.158C257.105 499.777 257.857 500.537 258.467 501.407C259.891 503.63 256.141 505.691 253.523 506.248Z" fill="#363340"/>
<path id="Path 220" opacity="0.1" d="M324.488 487.436C323.536 488.994 322.603 489.589 321.688 489.417C322.033 487.258 322.633 485.147 323.477 483.13C324.53 483.929 325.728 485.39 324.488 487.436Z" fill="black"/>
<path id="Path 221" d="M341.423 485.637C341.423 485.637 335.523 492.846 335.239 493.13C331.91 494.139 328.464 494.71 324.987 494.83C324.178 494.905 323.367 494.704 322.687 494.258C321.006 492.569 322.821 484.839 324.929 481.303C327.037 477.767 332.168 480.059 332.168 480.059C332.621 479.982 335.289 481.617 337.649 483.13C339.638 484.423 341.423 485.637 341.423 485.637Z" fill="#363340"/>
<path id="Path 222" opacity="0.1" d="M341.423 485.636C341.423 485.636 335.523 492.845 335.239 493.129C331.91 494.138 328.464 494.709 324.987 494.829C325.22 493.474 325.853 492.22 326.806 491.229C326.806 491.229 331.658 490.208 333.834 486.429C334.068 486.02 334.325 485.624 334.602 485.243C335.343 484.22 336.41 483.48 337.627 483.143C339.638 484.423 341.423 485.636 341.423 485.636Z" fill="black"/>
<path id="Path 223" d="M347.468 499.262C346.792 499.599 346.05 499.783 345.295 499.803C341.94 500.125 335.726 499.649 330.421 498.863C329.861 498.779 329.312 498.694 328.774 498.606C321.608 497.406 326.805 491.969 326.805 491.969C326.805 491.969 331.657 490.944 333.833 487.163C334.067 486.755 334.323 486.36 334.601 485.981C335.087 485.316 335.713 484.765 336.435 484.367C337.157 483.969 337.957 483.734 338.779 483.678C339.601 483.622 340.425 483.747 341.194 484.043C341.963 484.34 342.658 484.801 343.23 485.394C345.894 488.139 349.291 491.57 350.765 492.76C353.364 494.875 349.219 498.045 347.468 499.262Z" fill="#363340"/>
<path id="Path 225" d="M331.716 502.551C330.663 502.97 329.579 503.306 328.473 503.557C325.533 504.225 321.564 504.417 320.908 500.839C319.852 495.051 324.363 493.739 324.363 493.739L329.633 496.848L330.42 498.99L331.716 502.551Z" fill="#363340"/>
<path id="Path 226" d="M327.493 500.551C326.439 500.968 325.355 501.304 324.25 501.557C321.31 502.225 317.341 502.413 316.684 498.839C315.628 493.051 320.139 491.739 320.139 491.739L325.409 494.848L326.196 496.99L327.493 500.551Z" fill="#363340"/>
<path id="Path 227" d="M322.86 503.25C321.806 503.669 320.722 504.006 319.616 504.259C316.676 504.923 312.707 505.115 312.047 501.538C310.995 495.754 315.502 494.438 315.502 494.438L320.772 497.547L321.563 499.689L322.86 503.25Z" fill="#363340"/>
<path id="Path 228" opacity="0.1" d="M331.716 502.551C330.663 502.97 329.578 503.306 328.473 503.557L327.801 502.509C327.634 502.252 327.531 501.958 327.501 501.653C327.457 501.191 327.584 500.729 327.859 500.355C328.133 499.982 328.536 499.722 328.99 499.626C329.504 499.525 329.987 499.307 330.403 498.989L331.716 502.551Z" fill="black"/>
<path id="Path 229" opacity="0.1" d="M345.304 499.806C341.949 500.128 335.735 499.652 330.43 498.866C330.944 498.734 331.421 498.483 331.82 498.133C332.22 497.783 332.531 497.344 332.73 496.851C334.265 493.37 339.969 494.502 339.969 494.502C342.636 495.02 344.417 497.177 345.304 499.806Z" fill="black"/>
<path id="Path 230" d="M344.866 509.288C343.016 512.777 336.897 512.04 334.272 510.877C333.504 510.539 333.048 510.167 333.063 509.852C333.105 509 330.821 505.292 329.021 502.501C328.852 502.244 328.749 501.95 328.72 501.644C328.691 501.338 328.737 501.029 328.855 500.745C328.972 500.461 329.157 500.21 329.393 500.013C329.629 499.817 329.91 499.681 330.211 499.618C330.767 499.51 331.287 499.265 331.724 498.904C332.161 498.543 332.5 498.079 332.711 497.553C334.246 494.072 339.95 495.204 339.95 495.204C345.637 496.299 347.258 504.793 344.866 509.288Z" fill="#363340"/>
<path id="Path 231" opacity="0.1" d="M317.225 505.695C316.08 506.148 314.899 506.505 313.694 506.762C313.694 506.378 313.694 505.971 313.721 505.576C313.836 503.643 314.311 501.749 315.121 499.991L317.225 505.695Z" fill="black"/>
<path id="Path 232" opacity="0.1" d="M334.272 510.876C333.504 510.538 333.048 510.166 333.063 509.851C333.105 508.999 330.821 505.291 329.021 502.5C328.853 502.243 328.75 501.949 328.721 501.644C333.616 504.343 334.422 508.274 334.272 510.876Z" fill="black"/>
<path id="Path 233" d="M332.782 513.576C332.571 513.434 322.169 515.752 317.67 513.576L317.582 513.53C314.895 512.164 314.028 508.889 314.235 505.623C314.355 503.643 314.854 501.703 315.705 499.911C317.743 495.8 322.56 500.832 322.56 500.832L326.878 501.139C336.091 505.423 332.989 513.718 332.782 513.576Z" fill="#363340"/>
<path id="Path 234" opacity="0.1" d="M306.842 507.803C306.262 508.866 302.117 509.303 299.499 509.465C298.992 509.496 298.539 509.519 298.186 509.534C298.161 509.226 298.161 508.917 298.186 508.609C298.819 502.145 306.83 504.114 306.83 504.114L307.214 504.145C307.435 505.375 307.306 506.643 306.842 507.803Z" fill="black"/>
<path id="Path 235" opacity="0.1" d="M317.582 513.529C314.895 512.163 314.028 508.888 314.235 505.622C314.911 505.777 315.558 506.036 316.154 506.39C317.981 507.668 318.277 511.794 317.582 513.529Z" fill="black"/>
<path id="Path 236" d="M306.85 504.582C306.85 504.582 298.858 502.613 298.206 509.077C297.554 515.541 306.992 515.545 307.272 515.545C307.552 515.545 315.916 515.334 316.757 513.787C317.598 512.24 317.375 507.734 315.452 506.406C313.529 505.078 306.85 504.582 306.85 504.582Z" fill="#363340"/>
<path id="Path 237" opacity="0.1" d="M253.523 506.248C253.88 504.748 254.905 502.832 255.723 500.214C255.835 499.831 256.011 499.47 256.245 499.147C257.109 499.766 257.861 500.526 258.471 501.396C259.891 503.63 256.133 505.691 253.523 506.248Z" fill="black"/>
<path id="Path 238" d="M268.623 512.45C268.276 512.611 267.9 512.703 267.518 512.719C263.964 513.011 255.618 510.347 254.36 508.727C252.951 506.9 254.851 504.505 256.187 500.213C257.523 495.921 264.056 498.294 264.056 498.294C265.53 497.699 268.835 502.132 269.887 503.434C270.126 503.788 270.287 504.188 270.359 504.609C270.887 506.934 270.573 511.418 268.623 512.45Z" fill="#363340"/>
<path id="Path 239" d="M280.247 510.489C279.899 510.649 279.524 510.74 279.142 510.758C275.588 511.05 267.242 508.382 265.98 506.758C264.58 504.931 266.48 502.536 267.807 498.244C269.134 493.952 275.68 496.325 275.68 496.325C277.154 495.734 280.459 500.163 281.511 501.468C281.75 501.821 281.911 502.222 281.983 502.643C282.507 504.969 282.197 509.46 280.247 510.489Z" fill="#363340"/>
<path id="Path 240" opacity="0.1" d="M268.623 512.449C268.276 512.61 267.9 512.702 267.518 512.718C266.551 510.365 268.796 506.795 270.358 504.607C270.884 506.935 270.573 511.418 268.623 512.449Z" fill="black"/>
<path id="Path 241" opacity="0.1" d="M299.5 509.46C298.318 509.533 297.446 509.56 297.358 509.56C297.078 509.56 287.658 509.56 288.292 503.092C288.342 501.896 288.829 500.761 289.661 499.901C290.494 499.041 291.613 498.517 292.806 498.428C292.925 498.505 292.983 498.551 292.983 498.551C292.983 498.551 292.983 503.034 293.275 503.157C293.502 503.249 296.292 504.285 297.463 504.719C297.819 504.854 298.117 505.107 298.307 505.437C299.018 506.664 299.427 508.043 299.5 509.46V509.46Z" fill="black"/>
<path id="Path 242" d="M292.656 498.835C292.656 498.835 288.299 495.235 278.392 501.207C278.392 501.207 273.333 501.165 271.644 503.433C269.955 505.701 264.758 512.499 269.959 514.511C275.16 516.523 292.725 519.758 297.081 515.048C298.247 513.813 298.969 512.225 299.131 510.534C299.293 508.843 298.886 507.147 297.975 505.713C297.787 505.383 297.488 505.13 297.131 504.999C295.979 504.565 293.174 503.529 292.943 503.433C292.712 503.337 292.656 498.835 292.656 498.835Z" fill="#363340"/>
<path id="leaf-12" d="M329.246 510.294C326.656 510.888 324.293 512.221 322.446 514.132C324.847 515.301 327.562 515.658 330.183 515.149C332.804 514.64 335.189 513.293 336.978 511.311C334.551 510.238 331.868 509.885 329.246 510.294Z" fill="#398721"/>
<path id="leaf-13" d="M337.389 487.838C334.799 488.432 332.436 489.765 330.589 491.676C332.989 492.848 335.705 493.206 338.326 492.698C340.948 492.19 343.333 490.842 345.121 488.859C342.695 487.783 340.011 487.429 337.389 487.838V487.838Z" fill="#398721"/>
</g>
</g>
<g id="undraw camping noc8">
<path id="Path 44" d="M365.384 455.217L296.959 452.796L260.874 456.238L199.224 462.118L176.024 464.329L122.296 482.246C122.08 482.319 121.848 482.329 121.627 482.275C121.406 482.221 121.204 482.105 121.046 481.941C120.889 481.777 120.781 481.571 120.735 481.347C120.69 481.124 120.71 480.893 120.791 480.68V480.68L130.109 456.035L129.128 455.313L103.487 436.471L103.35 436.371L70.102 431.302C69.634 431.23 69.1919 431.04 68.8176 430.75C68.4433 430.46 68.149 430.08 67.9625 429.644C67.776 429.209 67.7034 428.734 67.7516 428.263C67.7998 427.791 67.9672 427.34 68.238 426.952L118.875 354.289L145.485 316.113L148.37 311.969L259.063 310.44L367.139 451.819C367.383 452.137 367.531 452.519 367.567 452.918C367.602 453.318 367.524 453.719 367.34 454.075C367.156 454.432 366.874 454.729 366.528 454.931C366.182 455.134 365.785 455.233 365.384 455.219V455.217Z" fill="#EF3D6D"/>
<path id="Path 45" opacity="0.2" d="M174.301 317.862L129.13 455.31L103.491 436.468L118.877 354.286L145.409 316.019L145.485 316.108L174.301 317.862Z" fill="black"/>
<path id="Path 46" d="M133.98 370.517C128.854 382.839 127.04 393.131 120.96 391.272C112.637 388.728 121.376 379.728 126.501 367.406C131.626 355.084 135.248 345.632 139.521 346.651C147.487 348.55 139.106 358.195 133.98 370.517Z" fill="#285D43"/>
<path id="Path 49" d="M62.662 430.681L61.945 430.305C80.316 395.29 132.277 320.475 132.8 319.724L133.465 320.186C132.943 320.937 81.01 395.71 62.662 430.681Z" fill="#3F3D56"/>
<path id="Path 50" d="M118.936 483.155L118.155 482.942C118.533 481.551 156.163 343.521 169.228 320.236L169.934 320.636C156.918 343.831 119.314 481.766 118.936 483.155Z" fill="#3F3D56"/>
<path id="Path 51" d="M370.323 456.395C350.262 423.348 274.502 320.995 273.739 319.968L274.39 319.486C275.153 320.516 350.935 422.896 371.015 455.975L370.323 456.395Z" fill="#3F3D56"/>
<path id="Ellipse 8" d="M117.479 486.83C119.044 486.828 120.311 485.194 120.308 483.181C120.305 481.168 119.033 479.538 117.467 479.54C115.901 479.543 114.635 481.177 114.638 483.19C114.641 485.203 115.913 486.833 117.479 486.83Z" fill="#3F3D56"/>
<path id="Ellipse 9" d="M62.8467 432.247C64.4124 432.245 65.6791 430.611 65.6758 428.598C65.6726 426.585 64.4007 424.955 62.835 424.957C61.2693 424.96 60.0026 426.594 60.0059 428.607C60.0091 430.62 61.281 432.25 62.8467 432.247Z" fill="#3F3D56"/>
<path id="Ellipse 10" d="M371.076 458.214C372.641 458.212 373.908 456.578 373.905 454.565C373.902 452.552 372.63 450.922 371.064 450.924C369.498 450.927 368.232 452.561 368.235 454.574C368.238 456.587 369.51 458.217 371.076 458.214Z" fill="#3F3D56"/>
<path id="Path 52" d="M129.651 323.743L282.437 325.382C282.331 312.903 277.299 300.971 268.435 292.186C259.571 283.402 247.595 278.476 235.115 278.482L176.804 278.576C164.967 278.658 153.586 283.154 144.89 291.186C136.194 299.218 130.809 310.206 129.788 321.999L129.651 323.743Z" fill="#3F3D56"/>
<path id="Path 53" opacity="0.2" d="M263.9 374.25H208.057C207.377 374.249 206.704 374.384 206.076 374.646C205.448 374.908 204.879 375.292 204.401 375.776C203.923 376.259 203.546 376.833 203.292 377.464C203.037 378.095 202.911 378.77 202.92 379.45L202.968 383.534L203.468 427.254L203.476 428.097L203.492 429.489L203.508 430.849L203.601 439.049C203.616 440.383 204.149 441.658 205.087 442.606C206.026 443.554 207.295 444.101 208.629 444.13C208.766 444.13 208.907 444.13 209.049 444.118L222.309 443.311L241.494 442.141L248.265 441.729L249.774 441.636L260.327 440.994L264.209 440.756C265.515 440.675 266.741 440.1 267.638 439.147C268.534 438.194 269.034 436.935 269.036 435.627V379.387C269.035 378.025 268.493 376.719 267.53 375.756C266.567 374.793 265.262 374.252 263.9 374.25Z" fill="black"/>
<path id="Path 54" d="M275.398 367.109C275.196 367.125 275 367.186 274.825 367.287C274.649 367.387 274.498 367.526 274.382 367.692L268.229 367.702V366.07C268.228 364.708 267.686 363.402 266.723 362.439C265.76 361.476 264.454 360.934 263.092 360.933H207.249C206.569 360.932 205.895 361.067 205.268 361.329C204.64 361.591 204.071 361.975 203.593 362.459C203.115 362.942 202.738 363.516 202.484 364.147C202.229 364.778 202.103 365.453 202.112 366.133L202.132 367.811L198.164 367.817C197.947 367.585 197.648 367.447 197.331 367.431C195.94 367.431 194.817 370.471 194.824 374.215C194.831 377.959 195.962 380.993 197.353 380.991C197.595 380.965 197.828 380.88 198.031 380.745C198.234 380.61 198.401 380.428 198.519 380.214L274.403 380.092C274.519 380.258 274.671 380.396 274.847 380.496C275.023 380.596 275.219 380.656 275.421 380.672C276.812 380.672 277.935 377.632 277.928 373.888C277.921 370.144 276.789 367.106 275.398 367.109Z" fill="#285D43"/>
<path id="Path 56" d="M269.148 452.838C268.778 453.184 268.334 453.439 267.849 453.585C267.364 453.73 266.852 453.762 266.353 453.676C265.854 453.591 265.381 453.391 264.972 453.093C264.563 452.795 264.229 452.406 263.995 451.957L260.959 446.128L262.162 443.511L268.67 447.676C269.091 447.946 269.445 448.308 269.705 448.735C269.965 449.162 270.123 449.643 270.169 450.141C270.215 450.639 270.146 451.14 269.968 451.608C269.79 452.075 269.508 452.495 269.143 452.837L269.148 452.838Z" fill="#FFB8B8"/>
<path id="Path 69" d="M269.04 432.752V435.621C269.038 436.929 268.539 438.188 267.642 439.141C266.746 440.093 265.52 440.669 264.214 440.75L209.049 444.111C208.354 444.154 207.658 444.055 207.003 443.82C206.348 443.585 205.747 443.22 205.238 442.746C204.728 442.272 204.32 441.699 204.039 441.062C203.758 440.426 203.609 439.739 203.601 439.043L203.468 427.251L236.837 426.71L269.04 432.752Z" fill="#3F3D56"/>
<path id="Path 70" d="M260.041 446.963L235.154 434.037C235.039 433.977 234.939 433.894 234.859 433.792C234.779 433.691 234.721 433.573 234.69 433.448L229.29 411.69C228.977 410.428 229.146 409.094 229.765 407.949C230.383 406.805 231.406 405.933 232.634 405.503L233.934 405.048C234.224 404.947 234.531 404.907 234.837 404.93C235.143 404.952 235.441 405.037 235.712 405.179C235.984 405.322 236.224 405.518 236.417 405.757C236.61 405.995 236.752 406.271 236.834 406.566L242.155 425.722C242.206 425.902 242.31 426.062 242.455 426.18L262.732 442.98C262.907 443.125 263.022 443.33 263.053 443.555C263.085 443.78 263.031 444.008 262.903 444.196L261.211 446.669C261.085 446.852 260.897 446.983 260.682 447.037C260.466 447.092 260.238 447.065 260.041 446.963V446.963Z" fill="#E6E6E6"/>
<path id="Path 71" d="M243.646 413.113C231.575 406.758 218.94 403.567 205.398 405.463C209.48 398.544 212.512 392.148 212.31 387.363C212.223 385.824 212.515 384.287 213.16 382.887C213.805 381.487 214.784 380.267 216.01 379.333C217.983 377.87 220.373 377.081 222.829 377.082V377.082C225.022 376.104 227.506 376.005 229.77 376.806C230.731 377.168 231.604 377.728 232.334 378.451C233.063 379.173 233.632 380.041 234.003 380.998C234.629 382.273 235.648 383.314 236.909 383.968C238.248 384.743 239.339 385.883 240.055 387.255C240.559 388.135 240.804 389.14 240.763 390.153C240.723 391.166 240.398 392.148 239.825 392.985C244.496 397.893 244.509 405.271 243.646 413.113Z" fill="#2F2E41"/>
<path id="Ellipse 11" d="M226.535 397.21C231.205 397.21 234.99 393.425 234.99 388.755C234.99 384.085 231.205 380.3 226.535 380.3C221.865 380.3 218.08 384.085 218.08 388.755C218.08 393.425 221.865 397.21 226.535 397.21Z" fill="#FFB8B8"/>
<path id="Path 72" d="M230.561 407.074L220.697 408.081C221.226 402.314 221.435 396.992 220.697 392.981H230.561C228.687 399.365 228.852 403.915 230.561 407.074Z" fill="#FFB8B8"/>
<path id="Path 73" d="M235.845 406.856C235.837 407.74 235.818 408.614 235.788 409.479C235.582 415.669 234.803 421.242 232.681 425.346C232.25 426.195 231.735 426.999 231.144 427.746C231.14 427.754 231.134 427.76 231.128 427.766C231.087 427.823 231.043 427.876 230.995 427.927C230.561 428.466 230.079 428.964 229.554 429.416L225.515 433.653L225.329 433.847L224.151 434.634L218.082 438.678L203.506 430.845L203.49 429.485L203.474 428.093C206.715 423.501 208.736 417.528 210.02 410.728C210.371 408.868 210.67 406.943 210.92 404.965C211.093 403.597 211.247 402.201 211.38 400.784C211.401 400.349 211.548 399.929 211.804 399.577V399.577C212.425 398.786 213.66 398.802 215.153 398.721C217.247 398.608 219.31 397.521 221.162 398.548C221.208 398.569 221.252 398.594 221.295 398.621L226.731 404.658L229.231 401.966L229.348 401.841L234.493 404.041C235.019 404.268 235.446 404.678 235.694 405.195C235.941 405.712 235.994 406.301 235.841 406.854L235.845 406.856Z" fill="#E6E6E6"/>
<path id="Path 74" d="M224.372 436.529C224.372 437.559 224.177 438.579 223.798 439.537L222.306 443.305L209.045 444.112C208.904 444.12 208.763 444.124 208.625 444.124C207.292 444.095 206.022 443.548 205.083 442.6C204.145 441.652 203.612 440.377 203.597 439.043L203.504 430.843L203.488 429.483L208.314 431.529L213.019 429.003C213.275 428.893 213.538 428.799 213.806 428.721C214.154 428.611 214.51 428.526 214.871 428.467V428.467C215.044 428.439 215.218 428.415 215.392 428.398C217.386 428.198 219.384 428.739 221.005 429.919C221.951 430.605 222.735 431.49 223.305 432.51C223.349 432.58 223.388 432.653 223.422 432.728C223.742 433.328 223.984 433.966 224.14 434.628C224.291 435.251 224.369 435.888 224.372 436.529Z" fill="#2F2E41"/>
<path id="Path 75" opacity="0.2" d="M220.596 412.408L222.36 420.501L233.077 429.72L223.616 420.057L220.596 412.408Z" fill="black"/>
<path id="Path 76" opacity="0.2" d="M210.732 416.233L213.953 429.318L223.415 432.74L214.558 428.311L210.732 416.233Z" fill="black"/>
<path id="Path 77" d="M236.701 389.258C230.469 386.391 223.424 385.574 217.174 388.658L217.979 381.411L231.668 379.197L236.701 389.258Z" fill="#2F2E41"/>
<g id="arm-and-marshmallow">
<path id="Path 80" d="M239.508 440.926L214.621 428C214.506 427.94 214.406 427.857 214.326 427.755C214.246 427.654 214.188 427.536 214.157 427.411L208.757 405.653C208.444 404.391 208.613 403.057 209.232 401.912C209.85 400.768 210.873 399.896 212.101 399.466L213.401 399.011C213.691 398.91 213.998 398.87 214.304 398.893C214.61 398.915 214.908 399 215.179 399.142C215.451 399.285 215.691 399.481 215.884 399.72C216.077 399.958 216.219 400.234 216.301 400.529L221.622 419.685C221.673 419.865 221.778 420.025 221.922 420.143L242.199 436.943C242.374 437.088 242.489 437.293 242.52 437.518C242.552 437.743 242.498 437.971 242.37 438.159L240.678 440.632C240.552 440.815 240.364 440.946 240.149 441C239.933 441.055 239.705 441.028 239.508 440.926V440.926Z" fill="#E6E6E6"/>
<path id="Path 78" d="M286.793 452.941L240.971 445.069L241.533 442.301L286.793 452.941Z" fill="#3F3D56"/>
<path id="Path 81" d="M281.853 454.374C282.074 454.418 282.303 454.373 282.49 454.249C282.678 454.124 282.808 453.93 282.853 453.71L283.312 451.41C283.334 451.301 283.335 451.188 283.314 451.079C283.293 450.969 283.25 450.865 283.188 450.772C283.126 450.679 283.047 450.599 282.954 450.537C282.862 450.475 282.757 450.432 282.648 450.41L275.997 449.08C275.888 449.058 275.775 449.057 275.666 449.079C275.556 449.1 275.452 449.143 275.359 449.205C275.266 449.266 275.187 449.346 275.124 449.438C275.062 449.531 275.019 449.635 274.997 449.744L274.538 452.044C274.516 452.153 274.515 452.266 274.536 452.375C274.558 452.485 274.6 452.589 274.662 452.682C274.724 452.775 274.803 452.855 274.896 452.917C274.989 452.979 275.093 453.022 275.202 453.044L281.853 454.374Z" fill="#E6E6E6"/>
<path id="Path 79" d="M248.611 446.798C248.241 447.144 247.797 447.399 247.312 447.545C246.827 447.69 246.315 447.722 245.816 447.636C245.317 447.551 244.844 447.351 244.435 447.053C244.026 446.755 243.692 446.366 243.458 445.917L240.422 440.088L241.63 437.471L248.139 441.636C248.56 441.906 248.914 442.268 249.174 442.695C249.434 443.122 249.592 443.603 249.638 444.101C249.684 444.599 249.615 445.1 249.437 445.568C249.259 446.035 248.977 446.455 248.612 446.797L248.611 446.798Z" fill="#FFB8B8"/>
</g>
</g>
<g id="Layer 2">
<g id="Layer 1">
<g id="Layer 2_2">
<g id="Layer 7">
<g id="background-flames-5">
<g id="Group 10" opacity="0.23">
<path id="Path 5" opacity="0.23" d="M276.91 452.313C278.335 451.601 279.485 446.104 280.91 444.313C282.701 442.339 284.381 442.356 284.91 439.313C285.172 436.809 284.455 434.301 282.91 432.313C289.179 437.32 283.665 443.558 279.91 447.313" fill="url(#paint7_linear)"/>
</g>
<g id="Group 11" opacity="0.23">
<path id="Path 6" opacity="0.23" d="M292.91 444.309C296.31 441.979 296.65 438.064 294.91 434.309C293.831 432.162 291.81 431.1 290.91 429.309C289.831 427.162 290.658 425.1 291.91 423.309C286.72 428.316 292.05 430.014 294.91 434.309C297.41 438.38 295.136 443.622 291.91 446.309" fill="url(#paint8_linear)"/>
</g>
<g id="Group 13" opacity="0.23">
<path id="Path 8" opacity="0.23" d="M302.91 457.313C302.91 454.626 304.162 452 302.91 449.313C301.302 445.731 298.41 443.608 300.91 439.313C294.285 443.384 300.093 450.767 299.91 456.313" fill="url(#paint9_linear)"/>
</g>
<g id="Group 14" opacity="0.23">
<path id="Path 9" opacity="0.23" d="M308.91 485.313C314.639 484.413 317.622 477.676 316.91 472.313C316.554 468.375 313.449 466.251 312.91 462.313C312.348 459.141 314.275 456.165 316.91 454.313C309.389 454.527 308.501 458.573 311.91 464.313C314.77 469.32 316.205 471.662 311.91 476.313" fill="url(#paint10_linear)"/>
</g>
<g id="Group 17" opacity="0.23">
<path id="Path 12" opacity="0.23" d="M301.91 455.31C299.58 450.476 300.765 446.317 299.91 441.31C297.58 446.673 297.867 450.12 300.91 455.31" fill="url(#paint11_linear)"/>
</g>
<g id="Group 19" opacity="0.23">
<path id="Path 14" opacity="0.23" d="M300.91 453.313C300.894 451.27 301.232 449.24 301.91 447.313C302.81 445.349 304.633 444.623 303.91 442.313C304.81 447.147 299.223 451.998 301.91 456.313" fill="url(#paint12_linear)"/>
</g>
<g id="Group 20" opacity="0.23">
<path id="Path 15" opacity="0.23" d="M291.91 443.314C293.345 441.706 295.668 440.914 296.91 439.314C299.24 436.261 298.302 432.357 299.91 429.314C301.884 437.903 292.886 449.228 302.91 455.314" fill="url(#paint13_linear)"/>
</g>
<g id="Group 28" opacity="0.23">
<path id="Path 23" opacity="0.23" d="M268.91 464.313C268.381 462.349 270.658 459.104 271.91 457.313C273.874 453.731 274.81 450.465 273.91 446.313C276.057 452.582 274.032 456.652 269.91 461.313" fill="url(#paint14_linear)"/>
</g>
<g id="Group 31" opacity="0.23">
<path id="Path 26" opacity="0.23" d="M289.91 444.313C293.136 442.166 295.449 440.435 294.91 436.313C294.198 430.207 284.949 426.829 291.91 421.313C288.145 424.366 285.41 426.835 287.91 431.313C290.057 435.251 292.597 440.018 289.91 444.313" fill="url(#paint15_linear)"/>
</g>
</g>
<g id="background-flames-4">
<g id="Group 7" opacity="0.23">
<path id="Path 2" opacity="0.23" d="M267.91 467.313C267.91 462.835 267.04 460.424 269.91 456.313C271.874 453.443 275.335 450.068 273.91 446.313C276.362 449.628 277.589 453.547 275.91 457.313C274.292 460.529 269.246 462.558 268.91 466.313" fill="url(#paint16_linear)"/>
</g>
<g id="Group 8" opacity="0.23">
<path id="Path 3" opacity="0.23" d="M275.91 455.313C275.727 452.474 277.475 448.654 278.91 446.313C280.701 443.26 283.083 441.068 282.91 437.313C282.727 434.813 280.946 433.46 282.91 431.313C282.01 436.503 288.136 438.95 284.91 444.313C283.485 446.813 275.946 452.945 277.91 456.313" fill="url(#paint17_linear)"/>
</g>
<g id="Group 12" opacity="0.23">
<path id="Path 7" opacity="0.23" d="M290.91 445.313C293.41 442.993 297.162 441.068 295.91 437.313C295.01 434.087 290.903 429.173 295.91 426.313C291.982 430.608 290.936 432.553 292.91 438.313C294.874 443.859 291.665 445.913 287.91 449.313" fill="url(#paint18_linear)"/>
</g>
<g id="Group 16" opacity="0.23">
<path id="Path 11" opacity="0.23" d="M301.91 457.313C303.162 450.688 298.485 445.755 299.91 439.313C298.129 445.226 298.501 448.889 301.91 454.313" fill="url(#paint19_linear)"/>
</g>
<g id="Group 22" opacity="0.23">
<path id="Path 17" opacity="0.23" d="M302.91 454.313C303.928 452.522 302.81 451.104 301.91 449.313C300.119 446.26 298.302 442.895 299.91 439.313C293.468 445.755 302.554 451.044 302.91 457.313" fill="url(#paint20_linear)"/>
</g>
<g id="Group 24" opacity="0.23">
<path id="Path 19" opacity="0.23" d="M314.91 470.313C318.126 462.436 303.537 455.699 308.91 447.313C302.11 452.32 305.328 458.413 308.91 464.313" fill="url(#paint21_linear)"/>
</g>
<g id="Group 33" opacity="0.23">
<path id="Path 28" opacity="0.23" d="M291.912 446.313C294.059 442.375 295.812 441.113 294.912 436.313C294.369 433.497 293.355 430.792 291.912 428.313C291.012 426.166 289.765 423.104 291.912 421.313C290.843 423.104 288.278 425.156 287.912 427.313C287.739 429.277 289.189 430.522 289.912 432.313C292.599 437.859 291.242 442.103 288.912 447.313" fill="url(#paint22_linear)"/>
</g>
</g>
<g id="background-flames-3">
<g id="Group 6" opacity="0.23">
<path id="Path 1" opacity="0.23" d="M278.91 489.313C268.886 486.813 262.831 478.513 263.91 468.313C264.266 465.26 265.701 462.02 263.91 459.313C269.273 462.529 268.737 466.767 268.91 472.313C269.093 475.173 269.684 480.061 272.91 481.313" fill="url(#paint23_linear)"/>
</g>
<g id="Group 9" opacity="0.23">
<path id="Path 4" opacity="0.23" d="M277.91 453.313C279.345 451.705 279.856 447.03 278.91 444.313C277.964 441.596 276.093 440.498 275.91 437.313C275.827 436.23 275.961 435.142 276.305 434.111C276.648 433.081 277.194 432.13 277.91 431.313C275.58 436.147 277.328 438.904 280.91 442.313C285.917 447.32 281.586 449.835 278.91 454.313" fill="url(#paint24_linear)"/>
</g>
<g id="Group 15" opacity="0.23">
<path id="Path 10" opacity="0.23" d="M310.91 483.312C315.744 480.625 317.701 473.79 315.91 469.312C314.302 464.661 311.979 459.963 310.91 455.312C310.187 452.625 310.119 450.459 311.91 448.312C309.04 450.286 305.91 454.557 305.91 458.312C305.91 462.067 310.658 464.912 311.91 468.312" fill="url(#paint25_linear)"/>
</g>
<g id="Group 18" opacity="0.23">
<path id="Path 13" opacity="0.23" d="M300.91 455.313C301.266 454.061 301.381 451.728 301.91 450.313C302.989 447.26 308.24 444.895 305.91 441.313C311.64 446.686 296.181 454.097 301.91 457.313" fill="url(#paint26_linear)"/>
</g>
<g id="Group 21" opacity="0.23">
<path id="Path 16" opacity="0.23" d="M291.91 444.313C294.057 441.453 294.528 435.356 292.91 432.313C291.302 428.913 281.463 424.974 285.91 420.313C285.198 422.827 284.371 425.453 284.91 428.313C285.266 430.813 287.177 432.84 287.91 435.313C289.518 440.147 285.388 444.878 280.91 446.313" fill="url(#paint27_linear)"/>
</g>
<g id="Group 32" opacity="0.23">
<path id="Path 27" opacity="0.23" d="M289.91 446.315C295.1 441.125 299.31 438.836 295.91 431.315C293.05 425.209 290.259 424.228 294.91 418.315C291.51 421.002 287.523 424.491 287.91 429.315C288.083 431.615 289.238 434.025 289.91 436.315C290.897 439.915 290.897 443.715 289.91 447.315" fill="url(#paint28_linear)"/>
</g>
<g id="Group 35" opacity="0.23">
<path id="Path 30" opacity="0.23" d="M291.91 441.313C294.41 439.349 297.083 436.713 296.91 433.313C296.727 428.662 295.102 424.774 301.91 425.313C299.753 426.213 298.083 427.813 297.91 430.313C297.727 432.643 299.737 433.759 299.91 436.313C299.91 440.964 295.126 443.166 291.91 445.313" fill="url(#paint29_linear)"/>
</g>
</g>
<g id="background-flames-2">
<g id="Group 25" opacity="0.23">
<path id="Path 20" opacity="0.23" d="M309.91 483.313C311.8 482.338 313.424 480.919 314.644 479.177C315.863 477.435 316.641 475.422 316.91 473.313C317.449 466.871 311.622 464.042 310.91 458.313C310.565 455.031 312.06 452.045 313.91 449.313C300.487 453.251 316.129 472.594 317.91 478.313" fill="url(#paint30_linear)"/>
</g>
<g id="Group 27" opacity="0.23">
<path id="Path 22" opacity="0.23" d="M267.91 467.313C267.91 460.505 273.162 454.897 271.91 448.313C278.352 452.251 269.884 460.731 267.91 464.313" fill="url(#paint31_linear)"/>
</g>
<g id="Group 30" opacity="0.23">
<path id="Path 25" opacity="0.23" d="M277.91 452.313C279.335 450.166 278.928 445.796 277.91 443.313C276.831 440.626 271.41 436 275.91 433.313C273.447 438.503 279.198 439.825 279.91 444.313C280.449 447.885 278.373 450.983 275.91 453.313" fill="url(#paint32_linear)"/>
</g>
<g id="Group 34" opacity="0.23">
<path id="Path 29" opacity="0.23" d="M292.91 446.313C295.78 440.94 294.884 434.686 292.91 429.313C291.485 425.741 290.05 423.539 292.91 420.313C290.59 423 287.71 425.425 287.91 429.313C288.093 433.384 289.91 437.385 289.91 441.313" fill="url(#paint33_linear)"/>
</g>
<g id="Group 37" opacity="0.23">
<path id="Path 32" opacity="0.23" d="M301.91 455.313C301.554 452.983 300.381 452.813 300.91 450.313C301.449 447.26 306.77 442.183 303.91 439.313C304.449 443.384 304.24 445.761 301.91 449.313C299.763 452.529 299.05 454.087 301.91 457.313" fill="url(#paint34_linear)"/>
</g>
</g>
<g id="background-flames-1">
<g id="Group 23" opacity="0.23">
<path id="Path 18" opacity="0.23" d="M314.91 475.313C318.981 464.22 304.259 458.693 308.91 448.313C301.389 455.65 311.839 463.4 315.91 469.313" fill="url(#paint35_linear)"/>
</g>
<g id="Group 26" opacity="0.23">
<path id="Path 21" opacity="0.23" d="M268.91 481.313C266.763 479.522 266.266 475.813 265.91 473.313C265.544 469.375 269.23 463.681 266.91 460.313C269.963 463.895 268.01 468.548 268.91 472.313" fill="url(#paint36_linear)"/>
</g>
<g id="Group 29" opacity="0.23">
<path id="Path 24" opacity="0.23" d="M274.909 456.313C275.448 453.453 278.118 449.643 279.909 447.313C283.309 442.479 282.161 441.859 280.909 436.313C280.186 433.813 280.409 431.789 282.909 430.313C278.838 432.813 284.37 437.626 284.909 440.313C285.927 445.147 279.952 450.27 276.909 453.313" fill="url(#paint37_linear)"/>
</g>
<g id="Group 36" opacity="0.23">
<path id="Path 31" opacity="0.23" d="M290.91 443.313C296.456 442.061 298.141 438.859 296.91 433.313C296.01 429.558 293.756 422.087 300.91 425.313C298.946 425.669 296.439 425.799 295.91 428.313C295.544 430.813 298.658 431.522 299.91 433.313C303.31 438.147 297.561 442.957 292.91 443.313" fill="url(#paint38_linear)"/>
</g>
<g id="Group 38" opacity="0.23">
<path id="Path 33" opacity="0.23" d="M301.913 456.313C301.547 452.913 299.226 451.713 301.913 448.313C304.773 444.904 311.024 439.503 306.913 434.313C309.243 438.781 309.495 443.558 305.913 447.313C301.842 451.608 297.079 453.4 301.913 459.313" fill="url(#paint39_linear)"/>
</g>
</g>
<path id="outermost-flame" d="M286.91 491.313C286.91 491.313 263.542 487.766 266.91 466.313C267.209 467.801 267.899 469.181 268.91 470.313C268.91 470.313 267.941 465.572 271.91 459.313C275.177 454.164 276.571 451.447 275.91 448.313C276.537 448.964 276.965 449.78 277.142 450.667C277.319 451.553 277.239 452.471 276.91 453.313C276.13 454.932 275.461 456.602 274.91 458.313C274.91 458.313 275.394 454.203 280.91 447.313C284.197 443.161 291.454 432.623 284.91 426.313C284.91 426.313 291.068 428.334 292.91 432.313C294.752 436.292 292.91 442.313 292.91 442.313C292.91 442.313 297.699 441.048 298.91 437.313C298.91 437.313 297.037 443.662 298.91 448.313C299.794 450.755 301.31 452.265 302.91 454.313C302.91 454.313 301.166 448.249 308.91 447.313C307.663 447.936 306.677 448.982 306.128 450.263C305.578 451.545 305.501 452.98 305.91 454.313C307.304 459.218 314.51 465.123 315.91 470.313C317.31 475.503 315.61 487.334 296.91 491.313C293.597 491.837 290.223 491.837 286.91 491.313Z" fill="url(#paint40_linear)"/>
<path id="outer-flame" d="M306.91 469.313C305.74 466.513 308.91 464.313 308.91 464.313C302.417 465.413 301.91 471.753 301.91 472.313C301.91 471.713 302.383 463.707 299.91 458.313C297.335 452.695 288.91 447.313 288.91 447.313C291.719 452.218 286.721 457.94 280.91 463.313C277.403 466.564 274.878 470.531 274.91 475.313C273.974 473.44 275.51 469.58 276.91 466.313C278.31 463.046 276.91 461.313 276.91 461.313C276.562 463.09 275.883 464.786 274.91 466.313C273.272 469.113 270.994 471.599 271.91 479.313C272.378 483.475 276.246 486.993 279.91 489.313C282.153 490.263 284.504 490.935 286.91 491.313C290.223 491.832 293.597 491.832 296.91 491.313C298.543 490.969 300.33 489.85 301.91 489.313C306.663 487.176 310.076 484.763 310.91 481.313C312.569 474.535 308.081 472.101 306.91 469.313ZM281.91 449.313C287.1 443.573 290.348 439.727 289.91 434.313C289.564 431.045 287.858 427.765 284.91 426.313C284.91 426.313 290.502 434.492 282.91 444.313C273.954 455.904 275.91 458.313 275.91 458.313C275.91 458.313 276.72 455.061 281.91 449.313V449.313ZM303.91 461.313C304.134 456.459 302.566 454.279 299.91 449.313C297.254 444.347 298.91 437.313 298.91 437.313C295.369 442.89 296.318 447.601 299.91 452.313C301.95 454.946 303.322 458.034 303.91 461.313Z" fill="url(#paint41_linear)"/>
<path id="inner-flame" d="M304.91 481.313C304.442 484.813 298.91 487.313 298.91 487.313C301.963 484.036 300.91 477.313 300.91 477.313C299.974 467.961 291.91 462.313 291.91 462.313C291.91 462.313 294.293 464.278 288.91 470.313C283.527 476.348 284.91 481.313 284.91 481.313C283.74 479.913 283.867 476.75 286.91 472.313C289.953 467.876 286.91 465.313 286.91 465.313C289.24 468.813 281.01 469.971 278.91 479.313C277.668 484.829 281.101 488.278 283.91 490.313C284.891 490.7 285.893 491.034 286.91 491.313C290.223 491.832 293.597 491.832 296.91 491.313H297.91C306.02 487.954 304.91 481.313 304.91 481.313Z" fill="url(#paint42_linear)"/>
<path id="innermost-flame" d="M290.909 480.313C291.153 481.498 291.632 482.342 290.909 483.313C289.749 485.226 288.421 487.023 288.909 489.313C289.119 490.034 289.458 490.712 289.909 491.313C290.845 491.313 292.085 491.364 292.909 491.313H293.909C296.006 487.497 295.377 481.728 290.909 480.313Z" fill="url(#paint43_linear)"/>
</g>
</g>
</g>
</g>
<g id="undraw romantic getaway k2mf">
<path id="Ellipse 12" d="M539.396 363.688C582.376 363.688 617.219 328.845 617.219 285.865C617.219 242.885 582.376 208.042 539.396 208.042C496.416 208.042 461.573 242.885 461.573 285.865C461.573 328.845 496.416 363.688 539.396 363.688Z" fill="#398721"/>
<path id="Ellipse 13" d="M440.039 342.427C483.019 342.427 517.862 307.584 517.862 264.604C517.862 221.624 483.019 186.781 440.039 186.781C397.059 186.781 362.216 221.624 362.216 264.604C362.216 307.584 397.059 342.427 440.039 342.427Z" fill="#398721"/>
<path id="Ellipse 14" d="M339.127 343.188C382.107 343.188 416.95 308.345 416.95 265.365C416.95 222.385 382.107 187.542 339.127 187.542C296.147 187.542 261.304 222.385 261.304 265.365C261.304 308.345 296.147 343.188 339.127 343.188Z" fill="#398721"/>
<path id="Ellipse 15" d="M306.327 363.688C349.307 363.688 384.15 328.845 384.15 285.865C384.15 242.885 349.307 208.042 306.327 208.042C263.347 208.042 228.504 242.885 228.504 285.865C228.504 328.845 263.347 363.688 306.327 363.688Z" fill="#398721"/>
<path id="Ellipse 16" d="M244.054 370.524C287.034 370.524 321.877 335.681 321.877 292.701C321.877 249.721 287.034 214.878 244.054 214.878C201.074 214.878 166.231 249.721 166.231 292.701C166.231 335.681 201.074 370.524 244.054 370.524Z" fill="#398721"/>
<path id="Ellipse 17" d="M223.553 309.023C266.533 309.023 301.376 274.18 301.376 231.2C301.376 188.22 266.533 153.377 223.553 153.377C180.573 153.377 145.73 188.22 145.73 231.2C145.73 274.18 180.573 309.023 223.553 309.023Z" fill="#398721"/>
<path id="Ellipse 18" d="M246.33 237.648C289.31 237.648 324.153 202.805 324.153 159.825C324.153 116.845 289.31 82.002 246.33 82.002C203.35 82.002 168.507 116.845 168.507 159.825C168.507 202.805 203.35 237.648 246.33 237.648Z" fill="#398721"/>
<path id="Ellipse 19" d="M301.276 237.648C344.256 237.648 379.099 202.805 379.099 159.825C379.099 116.845 344.256 82.002 301.276 82.002C258.296 82.002 223.453 116.845 223.453 159.825C223.453 202.805 258.296 237.648 301.276 237.648Z" fill="#398721"/>
<path id="Ellipse 20" d="M329.034 205.759C372.014 205.759 406.857 170.916 406.857 127.936C406.857 84.9555 372.014 50.113 329.034 50.113C286.054 50.113 251.211 84.9555 251.211 127.936C251.211 170.916 286.054 205.759 329.034 205.759Z" fill="#398721"/>
<path id="Ellipse 21" d="M399.675 240.685C442.655 240.685 477.498 205.842 477.498 162.862C477.498 119.882 442.655 85.039 399.675 85.039C356.695 85.039 321.852 119.882 321.852 162.862C321.852 205.842 356.695 240.685 399.675 240.685Z" fill="#398721"/>
<path id="Ellipse 22" d="M569.009 309.023C611.989 309.023 646.832 274.18 646.832 231.2C646.832 188.22 611.989 153.377 569.009 153.377C526.029 153.377 491.186 188.22 491.186 231.2C491.186 274.18 526.029 309.023 569.009 309.023Z" fill="#398721"/>
<path id="Ellipse 23" d="M514.888 270.298C557.868 270.298 592.711 235.455 592.711 192.475C592.711 149.495 557.868 114.652 514.888 114.652C471.908 114.652 437.065 149.495 437.065 192.475C437.065 235.455 471.908 270.298 514.888 270.298Z" fill="#398721"/>
<path id="Ellipse 24" d="M482.931 231.573C525.911 231.573 560.754 196.73 560.754 153.75C560.754 110.77 525.911 75.927 482.931 75.927C439.951 75.927 405.108 110.77 405.108 153.75C405.108 196.73 439.951 231.573 482.931 231.573Z" fill="#398721"/>
<path id="Ellipse 25" d="M422.382 173.109C465.362 173.109 500.205 138.266 500.205 95.286C500.205 52.3056 465.362 17.463 422.382 17.463C379.402 17.463 344.559 52.3056 344.559 95.286C344.559 138.266 379.402 173.109 422.382 173.109Z" fill="#398721"/>
<path id="Ellipse 26" d="M542.433 237.648C585.413 237.648 620.256 202.805 620.256 159.825C620.256 116.845 585.413 82.002 542.433 82.002C499.453 82.002 464.61 116.845 464.61 159.825C464.61 202.805 499.453 237.648 542.433 237.648Z" fill="#398721"/>
<g id="Group 39" opacity="0.1">
<path id="Ellipse 27" opacity="0.1" d="M539.396 363.688C582.376 363.688 617.219 328.845 617.219 285.865C617.219 242.885 582.376 208.042 539.396 208.042C496.416 208.042 461.573 242.885 461.573 285.865C461.573 328.845 496.416 363.688 539.396 363.688Z" fill="black"/>
<path id="Ellipse 28" opacity="0.1" d="M441.186 342.426C484.166 342.426 519.009 307.583 519.009 264.603C519.009 221.623 484.166 186.78 441.186 186.78C398.206 186.78 363.363 221.623 363.363 264.603C363.363 307.583 398.206 342.426 441.186 342.426Z" fill="black"/>
<path id="Ellipse 29" opacity="0.1" d="M337.556 343.188C380.536 343.188 415.379 308.345 415.379 265.365C415.379 222.385 380.536 187.542 337.556 187.542C294.576 187.542 259.733 222.385 259.733 265.365C259.733 308.345 294.576 343.188 337.556 343.188Z" fill="black"/>
<path id="Ellipse 30" opacity="0.1" d="M303.873 363.688C346.853 363.688 381.696 328.845 381.696 285.865C381.696 242.885 346.853 208.042 303.873 208.042C260.893 208.042 226.05 242.885 226.05 285.865C226.05 328.845 260.893 363.688 303.873 363.688Z" fill="black"/>
<path id="Ellipse 31" opacity="0.1" d="M244.054 370.524C287.034 370.524 321.877 335.681 321.877 292.701C321.877 249.721 287.034 214.878 244.054 214.878C201.074 214.878 166.231 249.721 166.231 292.701C166.231 335.681 201.074 370.524 244.054 370.524Z" fill="black"/>
<path id="Ellipse 32" opacity="0.1" d="M223.553 309.023C266.533 309.023 301.376 274.18 301.376 231.2C301.376 188.22 266.533 153.377 223.553 153.377C180.573 153.377 145.73 188.22 145.73 231.2C145.73 274.18 180.573 309.023 223.553 309.023Z" fill="black"/>
<path id="Ellipse 33" opacity="0.1" d="M246.33 237.648C289.31 237.648 324.153 202.805 324.153 159.825C324.153 116.845 289.31 82.002 246.33 82.002C203.35 82.002 168.507 116.845 168.507 159.825C168.507 202.805 203.35 237.648 246.33 237.648Z" fill="black"/>
<path id="Ellipse 34" opacity="0.1" d="M289.607 237.648C332.587 237.648 367.43 202.805 367.43 159.825C367.43 116.845 332.587 82.002 289.607 82.002C246.627 82.002 211.784 116.845 211.784 159.825C211.784 202.805 246.627 237.648 289.607 237.648Z" fill="black"/>
<path id="Ellipse 35" opacity="0.1" d="M327.191 205.759C370.171 205.759 405.014 170.916 405.014 127.936C405.014 84.9555 370.171 50.113 327.191 50.113C284.211 50.113 249.368 84.9555 249.368 127.936C249.368 170.916 284.211 205.759 327.191 205.759Z" fill="black"/>
<path id="Ellipse 36" opacity="0.1" d="M399.736 240.685C442.716 240.685 477.559 205.842 477.559 162.862C477.559 119.882 442.716 85.039 399.736 85.039C356.756 85.039 321.913 119.882 321.913 162.862C321.913 205.842 356.756 240.685 399.736 240.685Z" fill="black"/>
<path id="Ellipse 37" opacity="0.1" d="M569.008 309.023C611.988 309.023 646.831 274.18 646.831 231.2C646.831 188.22 611.988 153.377 569.008 153.377C526.028 153.377 491.185 188.22 491.185 231.2C491.185 274.18 526.028 309.023 569.008 309.023Z" fill="black"/>
<path id="Ellipse 38" opacity="0.1" d="M524.209 270.298C567.189 270.298 602.032 235.455 602.032 192.475C602.032 149.495 567.189 114.652 524.209 114.652C481.229 114.652 446.386 149.495 446.386 192.475C446.386 235.455 481.229 270.298 524.209 270.298Z" fill="black"/>
<path id="Ellipse 39" opacity="0.1" d="M485.233 231.573C528.213 231.573 563.056 196.73 563.056 153.75C563.056 110.77 528.213 75.927 485.233 75.927C442.253 75.927 407.41 110.77 407.41 153.75C407.41 196.73 442.253 231.573 485.233 231.573Z" fill="black"/>
<path id="Ellipse 40" opacity="0.1" d="M423.054 173.109C466.034 173.109 500.877 138.266 500.877 95.286C500.877 52.3056 466.034 17.463 423.054 17.463C380.074 17.463 345.231 52.3056 345.231 95.286C345.231 138.266 380.074 173.109 423.054 173.109Z" fill="black"/>
<path id="Ellipse 41" opacity="0.1" d="M542.433 237.648C585.413 237.648 620.256 202.805 620.256 159.825C620.256 116.845 585.413 82.002 542.433 82.002C499.453 82.002 464.61 116.845 464.61 159.825C464.61 202.805 499.453 237.648 542.433 237.648Z" fill="black"/>
</g>
<path id="Path 82" d="M487.518 422.243C487.518 422.243 535.127 382.243 511.528 325.313L487.99 316.498L462.473 395.128L487.518 422.243Z" fill="#67647E"/>
<path id="Path 83" opacity="0.1" d="M488.869 313.788L494.502 315.897L469.426 393.097L491.312 416.787C489.5 418.587 488.374 419.535 488.374 419.535L463.329 392.418L488.869 313.788Z" fill="black"/>
<path id="Path 84" d="M591.076 413.854C586.477 418.995 583.409 425.32 582.218 432.114C581.028 438.907 581.762 445.899 584.339 452.297C593.078 475.264 569.365 513.448 569.365 513.448L570.126 513.326C601.908 507.716 617.704 471.366 600.026 444.357C593.413 434.332 588.024 422.548 591.076 413.854Z" fill="#398721"/>
<path id="Path 85" d="M583.507 413.854C583.507 413.854 574.768 432.824 583.507 448.301C592.246 463.778 585.029 507.207 561.788 513.449" stroke="#535461" stroke-miterlimit="10"/>
<path id="Path 86" d="M618.604 476.452C618.604 476.452 600.943 473.643 599.337 489.469C597.731 505.295 565.377 507.488 565.377 507.488L565.986 507.888C592.698 525.4 618.231 519.059 614.377 495.782C612.977 487.124 613.1 478.431 618.604 476.452Z" fill="#398721"/>
<path id="Path 87" opacity="0.2" d="M618.604 476.452C618.604 476.452 600.943 473.643 599.337 489.469C597.731 505.295 565.377 507.488 565.377 507.488L565.986 507.888C592.698 525.4 618.231 519.059 614.377 495.782C612.977 487.124 613.1 478.431 618.604 476.452Z" fill="#F5F5F5"/>
<path id="Path 88" d="M618.604 476.452C618.604 476.452 604.904 479.497 606.021 491.928C607.138 504.359 585.664 519.333 565.377 507.488" stroke="#535461" stroke-miterlimit="10"/>
<path id="Path 89" d="M269.992 338.954L276.173 363.695C276.173 363.695 319.846 369.389 348.964 365.811C354.111 365.081 359.053 363.298 363.481 360.574C365.94 359.12 369.822 358.488 375.128 362.462C384.217 369.313 428.828 424.123 421.602 480.989C421.041 485.274 419.084 489.254 416.033 492.315C412.982 495.375 409.008 497.345 404.725 497.919V497.919C395.828 499.132 387.323 502.35 379.852 507.331L357.776 522.031L584.134 517.083L560.642 488.627C560.642 488.627 544.564 475.027 532.194 473.783C528.586 473.425 525.609 470.114 523.204 465.615C509.116 439.231 492.262 414.431 473.992 390.75C460.685 373.5 449.518 355.321 450.561 343.903C453.035 316.688 450.561 272.163 450.561 272.163L403.561 265.982C403.561 265.982 409.742 325.36 352.846 340.196C295.95 355.032 269.992 338.954 269.992 338.954Z" fill="#67647E"/>
<g id="Group 40" opacity="0.1">
<path id="Path 90" opacity="0.1" d="M299.361 350.092C299.361 350.092 325.343 366.17 382.238 351.356C439.133 336.542 432.915 277.111 432.915 277.111L441.905 278.276C441.738 274.47 441.605 272.186 441.605 272.186L394.605 266.005C394.605 266.005 400.786 325.383 343.89 340.219C286.994 355.055 261.013 338.986 261.013 338.986L267.194 363.727C267.194 363.727 283.881 365.904 303.506 366.719L299.361 350.092Z" fill="black"/>
<path id="Path 91" opacity="0.1" d="M409.232 518.458C416.702 513.479 425.206 510.261 434.102 509.049V509.049C438.375 508.481 442.343 506.522 445.392 503.475C448.441 500.427 450.402 496.46 450.971 492.187C458.233 435.322 413.601 380.412 404.535 373.587C394.635 366.165 389.691 374.82 389.691 374.82C386.189 375.739 382.628 376.418 379.033 376.853C395.065 398.168 418.001 439.053 412.633 481.045C412.064 485.318 410.103 489.285 407.054 492.333C404.005 495.38 400.037 497.339 395.764 497.907V497.907C386.868 499.122 378.365 502.343 370.896 507.325L348.82 522.025L405.731 520.784L409.232 518.458Z" fill="black"/>
</g>
<path id="leaf-15" d="M634.331 362.622C634.234 365.75 633.255 368.788 631.507 371.384C629.745 368.797 628.75 365.765 628.637 362.637C628.637 357.803 629.885 353.883 631.461 353.875C633.037 353.867 634.316 357.788 634.331 362.622Z" fill="#398721"/>
<path id="leaf-5" d="M398.542 358.374C398.437 361.502 397.45 364.536 395.695 367.128C393.94 364.536 392.953 361.502 392.848 358.374C392.848 353.54 394.119 349.62 395.695 349.62C397.271 349.62 398.542 353.54 398.542 358.374Z" fill="#398721"/>
<path id="leaf-16" d="M653.621 444.64C655.376 447.232 656.363 450.266 656.468 453.394C653.525 452.332 650.941 450.46 649.015 447.994C646.168 444.081 644.897 440.161 646.168 439.24C647.439 438.319 650.796 440.734 653.621 444.64Z" fill="#398721"/>
<path id="leaf-14" d="M552.922 398.804C552.817 401.932 551.83 404.967 550.075 407.558C548.32 404.967 547.333 401.932 547.228 398.804C547.228 393.97 548.499 390.05 550.075 390.05C551.651 390.05 552.922 393.986 552.922 398.804Z" fill="#398721"/>
<path id="leaf-9" d="M495.601 369.724C495.496 372.852 494.509 375.886 492.754 378.478C490.999 375.886 490.012 372.852 489.907 369.724C489.907 364.89 491.178 360.97 492.754 360.97C494.33 360.97 495.601 364.89 495.601 369.724Z" fill="#398721"/>
<path id="leaf-8" d="M460.079 387.454C461.542 390.221 462.194 393.346 461.959 396.467C459.137 395.095 456.762 392.952 455.108 390.286C452.702 386.091 451.865 382.057 453.228 381.273C454.591 380.489 457.673 383.259 460.079 387.454Z" fill="#398721"/>
<path id="leaf-2" d="M295.727 421.482C297.196 424.258 297.848 427.394 297.607 430.526C294.785 429.154 292.41 427.011 290.756 424.345C288.35 420.15 287.513 416.116 288.876 415.332C290.239 414.548 293.322 417.287 295.727 421.482Z" fill="#398721"/>
<g id="leaf-7">
<path id="Path 112" d="M433.589 467.873C431.234 469.934 428.344 471.288 425.253 471.778C425.943 468.726 427.482 465.932 429.691 463.716C433.216 460.416 436.953 458.661 438.027 459.803C439.101 460.945 437.116 464.569 433.589 467.873Z" fill="#398721"/>
<path id="Path 113" opacity="0.1" d="M433.589 467.873C431.234 469.934 428.344 471.288 425.253 471.778C425.943 468.726 427.482 465.932 429.691 463.716C433.216 460.416 436.953 458.661 438.027 459.803C439.101 460.945 437.116 464.569 433.589 467.873Z" fill="black"/>
</g>
<g id="leaf-10">
<path id="Path 114" d="M489.466 462.909C487.1 464.976 484.196 466.33 481.092 466.814C481.782 463.762 483.321 460.968 485.53 458.752C489.055 455.452 492.792 453.697 493.866 454.839C494.94 455.981 492.956 459.597 489.466 462.909Z" fill="#398721"/>
<path id="Path 115" opacity="0.1" d="M489.466 462.909C487.1 464.976 484.196 466.33 481.092 466.814C481.782 463.762 483.321 460.968 485.53 458.752C489.055 455.452 492.792 453.697 493.866 454.839C494.94 455.981 492.956 459.597 489.466 462.909Z" fill="black"/>
</g>
<g id="leaf-11">
<path id="Path 116" d="M500.143 515.39C497.777 517.457 494.873 518.811 491.769 519.295C492.468 516.234 494.02 513.433 496.245 511.218C499.77 507.918 503.507 506.163 504.581 507.305C505.655 508.447 503.668 512.079 500.143 515.39Z" fill="#398721"/>
<path id="Path 117" opacity="0.1" d="M500.143 515.39C497.777 517.457 494.873 518.811 491.769 519.295C492.468 516.234 494.02 513.433 496.245 511.218C499.77 507.918 503.507 506.163 504.581 507.305C505.655 508.447 503.668 512.079 500.143 515.39Z" fill="black"/>
</g>
<g id="leaf-6">
<path id="Path 118" d="M390.741 478.484C388.387 480.548 385.497 481.904 382.405 482.397C383.095 479.345 384.634 476.551 386.843 474.335C390.368 471.035 394.105 469.28 395.179 470.422C396.253 471.564 394.274 475.203 390.741 478.484Z" fill="#398721"/>
<path id="Path 119" opacity="0.1" d="M390.741 478.484C388.387 480.548 385.497 481.904 382.405 482.397C383.095 479.345 384.634 476.551 386.843 474.335C390.368 471.035 394.105 469.28 395.179 470.422C396.253 471.564 394.274 475.203 390.741 478.484Z" fill="black"/>
</g>
<g id="leaf-4">
<path id="Path 121" d="M337.193 453.693C334.839 455.757 331.949 457.113 328.857 457.606C329.55 454.56 331.088 451.771 333.295 449.56C336.82 446.26 340.557 444.505 341.631 445.647C342.705 446.789 340.718 450.378 337.193 453.693Z" fill="#398721"/>
<path id="Path 122" opacity="0.1" d="M337.193 453.693C334.839 455.757 331.949 457.113 328.857 457.606C329.55 454.56 331.088 451.771 333.295 449.56C336.82 446.26 340.557 444.505 341.631 445.647C342.705 446.789 340.718 450.378 337.193 453.693Z" fill="black"/>
</g>
<g id="leaf-3">
<path id="Path 123" d="M327.14 396.041C324.445 398.568 320.289 398.541 320.289 398.541C320.289 398.541 320.525 394.415 323.22 391.888C325.915 389.361 328.967 388.249 330.071 389.388C331.175 390.527 329.835 393.521 327.14 396.041Z" fill="#398721"/>
<path id="Path 124" opacity="0.1" d="M327.14 396.041C324.445 398.568 320.289 398.541 320.289 398.541C320.289 398.541 320.525 394.415 323.22 391.888C325.915 389.361 328.967 388.249 330.071 389.388C331.175 390.527 329.835 393.521 327.14 396.041Z" fill="black"/>
</g>
<g id="leaf-1">
<path id="Path 125" d="M247.618 410.076C245.265 412.14 242.376 413.497 239.285 413.991C239.976 410.939 241.514 408.145 243.723 405.929C247.248 402.629 250.985 400.874 252.059 402.016C253.133 403.158 251.143 406.776 247.618 410.076Z" fill="#398721"/>
<path id="Path 126" opacity="0.1" d="M247.618 410.076C245.265 412.14 242.376 413.497 239.285 413.991C239.976 410.939 241.514 408.145 243.723 405.929C247.248 402.629 250.985 400.874 252.059 402.016C253.133 403.158 251.143 406.776 247.618 410.076Z" fill="black"/>
</g>
<path id="Path 186" d="M591.678 511.663C591.678 511.663 604.703 509.075 608.178 505.626C611.653 502.177 627.285 496.141 629.021 500.449C630.757 504.757 652.468 519.419 637.707 522C622.946 524.581 602.971 525.448 598.632 523.728C594.293 522.008 591.678 511.663 591.678 511.663Z" fill="#A8A8A8"/>
<path id="Path 187" opacity="0.2" d="M637.704 520.414C622.943 523.002 602.968 523.862 598.629 522.142C595.329 520.825 593.029 514.529 592.113 511.583L591.679 511.674C591.679 511.674 594.279 522.019 598.629 523.747C602.979 525.475 622.943 524.607 637.704 522.019C641.967 521.258 643.185 519.519 642.728 517.299C642.355 518.739 640.87 519.858 637.704 520.414Z" fill="black"/>
<path id="Ellipse 45" d="M539.396 346.225C582.376 346.225 617.219 311.382 617.219 268.402C617.219 225.422 582.376 190.579 539.396 190.579C496.416 190.579 461.573 225.422 461.573 268.402C461.573 311.382 496.416 346.225 539.396 346.225Z" fill="#398721"/>
<path id="Ellipse 46" d="M440.039 324.963C483.019 324.963 517.862 290.12 517.862 247.14C517.862 204.16 483.019 169.317 440.039 169.317C397.059 169.317 362.216 204.16 362.216 247.14C362.216 290.12 397.059 324.963 440.039 324.963Z" fill="#398721"/>
<path id="Ellipse 47" d="M339.127 325.725C382.107 325.725 416.95 290.882 416.95 247.902C416.95 204.922 382.107 170.079 339.127 170.079C296.147 170.079 261.304 204.922 261.304 247.902C261.304 290.882 296.147 325.725 339.127 325.725Z" fill="#398721"/>
<path id="Ellipse 48" d="M306.327 346.225C349.307 346.225 384.15 311.382 384.15 268.402C384.15 225.422 349.307 190.579 306.327 190.579C263.347 190.579 228.504 225.422 228.504 268.402C228.504 311.382 263.347 346.225 306.327 346.225Z" fill="#398721"/>
<path id="Ellipse 49" d="M244.054 353.061C287.034 353.061 321.877 318.218 321.877 275.238C321.877 232.258 287.034 197.415 244.054 197.415C201.074 197.415 166.231 232.258 166.231 275.238C166.231 318.218 201.074 353.061 244.054 353.061Z" fill="#398721"/>
<path id="Ellipse 50" d="M223.553 291.56C266.533 291.56 301.376 256.717 301.376 213.737C301.376 170.757 266.533 135.914 223.553 135.914C180.573 135.914 145.73 170.757 145.73 213.737C145.73 256.717 180.573 291.56 223.553 291.56Z" fill="#398721"/>
<path id="Ellipse 51" d="M246.33 220.185C289.31 220.185 324.153 185.342 324.153 142.362C324.153 99.3815 289.31 64.539 246.33 64.539C203.35 64.539 168.507 99.3815 168.507 142.362C168.507 185.342 203.35 220.185 246.33 220.185Z" fill="#398721"/>
<path id="Ellipse 52" d="M301.276 220.185C344.256 220.185 379.099 185.342 379.099 142.362C379.099 99.3815 344.256 64.539 301.276 64.539C258.296 64.539 223.453 99.3815 223.453 142.362C223.453 185.342 258.296 220.185 301.276 220.185Z" fill="#398721"/>
<path id="Ellipse 53" d="M329.034 188.296C372.014 188.296 406.857 153.453 406.857 110.473C406.857 67.4925 372.014 32.65 329.034 32.65C286.054 32.65 251.211 67.4925 251.211 110.473C251.211 153.453 286.054 188.296 329.034 188.296Z" fill="#398721"/>
<path id="Ellipse 54" d="M399.675 223.222C442.655 223.222 477.498 188.379 477.498 145.399C477.498 102.419 442.655 67.576 399.675 67.576C356.695 67.576 321.852 102.419 321.852 145.399C321.852 188.379 356.695 223.222 399.675 223.222Z" fill="#398721"/>
<path id="Ellipse 55" d="M569.009 291.56C611.989 291.56 646.832 256.717 646.832 213.737C646.832 170.757 611.989 135.914 569.009 135.914C526.029 135.914 491.186 170.757 491.186 213.737C491.186 256.717 526.029 291.56 569.009 291.56Z" fill="#398721"/>
<path id="Ellipse 56" d="M514.888 252.835C557.868 252.835 592.711 217.992 592.711 175.012C592.711 132.032 557.868 97.189 514.888 97.189C471.908 97.189 437.065 132.032 437.065 175.012C437.065 217.992 471.908 252.835 514.888 252.835Z" fill="#398721"/>
<path id="Ellipse 57" d="M482.931 214.11C525.911 214.11 560.754 179.267 560.754 136.287C560.754 93.3065 525.911 58.464 482.931 58.464C439.951 58.464 405.108 93.3065 405.108 136.287C405.108 179.267 439.951 214.11 482.931 214.11Z" fill="#398721"/>
<path id="Ellipse 58" d="M422.382 155.646C465.362 155.646 500.205 120.803 500.205 77.823C500.205 34.8425 465.362 0 422.382 0C379.402 0 344.559 34.8425 344.559 77.823C344.559 120.803 379.402 155.646 422.382 155.646Z" fill="#398721"/>
<path id="Ellipse 59" d="M542.433 220.185C585.413 220.185 620.256 185.342 620.256 142.362C620.256 99.3815 585.413 64.539 542.433 64.539C499.453 64.539 464.61 99.3815 464.61 142.362C464.61 185.342 499.453 220.185 542.433 220.185Z" fill="#398721"/>
<path id="Path 188" opacity="0.1" d="M616.871 154.549C616.871 154.549 544.392 120.179 500.537 181.094Z" fill="black"/>
<path id="Path 189" opacity="0.1" d="M402.054 84.92C402.054 84.92 321.879 82.499 306.136 155.884Z" fill="#5D1010"/>
<path id="Path 190" opacity="0.1" d="M285.084 244.141C285.084 244.141 212.606 209.763 168.75 270.663Z" fill="#5D1010"/>
</g>
<g id="star-1">
<g id="Group">
<g id="Ellipse 60">
<path id="Vector" d="M115.41 16.313C116.238 16.313 116.91 15.6414 116.91 14.813C116.91 13.9846 116.238 13.313 115.41 13.313C114.582 13.313 113.91 13.9846 113.91 14.813C113.91 15.6414 114.582 16.313 115.41 16.313Z" fill="#F0E79F"/>
<path id="Vector_2" d="M115.41 15.813C115.962 15.813 116.41 15.3653 116.41 14.813C116.41 14.2607 115.962 13.813 115.41 13.813C114.858 13.813 114.41 14.2607 114.41 14.813C114.41 15.3653 114.858 15.813 115.41 15.813Z" stroke="#707070"/>
</g>
</g>
</g>
<g id="star-6">
<g id="Group_2">
<g id="Ellipse 60_2">
<path id="Vector_3" d="M260.41 29.313C261.238 29.313 261.91 28.6414 261.91 27.813C261.91 26.9846 261.238 26.313 260.41 26.313C259.582 26.313 258.91 26.9846 258.91 27.813C258.91 28.6414 259.582 29.313 260.41 29.313Z" fill="#F0E79F"/>
<path id="Vector_4" d="M260.41 28.813C260.962 28.813 261.41 28.3653 261.41 27.813C261.41 27.2607 260.962 26.813 260.41 26.813C259.858 26.813 259.41 27.2607 259.41 27.813C259.41 28.3653 259.858 28.813 260.41 28.813Z" stroke="#707070"/>
</g>
</g>
</g>
<g id="star-5">
<g id="Group_3">
<g id="Ellipse 60_3">
<path id="Vector_5" d="M201.41 19.313C202.238 19.313 202.91 18.6414 202.91 17.813C202.91 16.9846 202.238 16.313 201.41 16.313C200.582 16.313 199.91 16.9846 199.91 17.813C199.91 18.6414 200.582 19.313 201.41 19.313Z" fill="#F0E79F"/>
<path id="Vector_6" d="M201.41 18.813C201.962 18.813 202.41 18.3653 202.41 17.813C202.41 17.2607 201.962 16.813 201.41 16.813C200.858 16.813 200.41 17.2607 200.41 17.813C200.41 18.3653 200.858 18.813 201.41 18.813Z" stroke="#707070"/>
</g>
</g>
</g>
<g id="star-3">
<g id="Group_4">
<g id="Ellipse 60_4">
<path id="Vector_7" d="M152.41 36.313C153.238 36.313 153.91 35.6414 153.91 34.813C153.91 33.9846 153.238 33.313 152.41 33.313C151.582 33.313 150.91 33.9846 150.91 34.813C150.91 35.6414 151.582 36.313 152.41 36.313Z" fill="#F0E79F"/>
<path id="Vector_8" d="M152.41 35.813C152.962 35.813 153.41 35.3653 153.41 34.813C153.41 34.2607 152.962 33.813 152.41 33.813C151.858 33.813 151.41 34.2607 151.41 34.813C151.41 35.3653 151.858 35.813 152.41 35.813Z" stroke="#707070"/>
</g>
</g>
</g>
<g id="star-4">
<g id="Group_5">
<g id="Ellipse 60_5">
<path id="Vector_9" d="M190.41 59.313C191.238 59.313 191.91 58.6414 191.91 57.813C191.91 56.9846 191.238 56.313 190.41 56.313C189.582 56.313 188.91 56.9846 188.91 57.813C188.91 58.6414 189.582 59.313 190.41 59.313Z" fill="#F0E79F"/>
<path id="Vector_10" d="M190.41 58.813C190.962 58.813 191.41 58.3653 191.41 57.813C191.41 57.2607 190.962 56.813 190.41 56.813C189.858 56.813 189.41 57.2607 189.41 57.813C189.41 58.3653 189.858 58.813 190.41 58.813Z" stroke="#707070"/>
</g>
</g>
</g>
<g id="star-2">
<g id="Group_6">
<g id="Ellipse 60_6">
<path id="Vector_11" d="M144.41 84.313C145.238 84.313 145.91 83.6414 145.91 82.813C145.91 81.9846 145.238 81.313 144.41 81.313C143.582 81.313 142.91 81.9846 142.91 82.813C142.91 83.6414 143.582 84.313 144.41 84.313Z" fill="#F0E79F"/>
<path id="Vector_12" d="M144.41 83.813C144.962 83.813 145.41 83.3653 145.41 82.813C145.41 82.2607 144.962 81.813 144.41 81.813C143.858 81.813 143.41 82.2607 143.41 82.813C143.41 83.3653 143.858 83.813 144.41 83.813Z" stroke="#707070"/>
</g>
</g>
</g>
<g id="star-7">
<g id="Group_7">
<g id="Ellipse 60_7">
<path id="Vector_13" d="M330.41 13.313C331.238 13.313 331.91 12.6414 331.91 11.813C331.91 10.9846 331.238 10.313 330.41 10.313C329.582 10.313 328.91 10.9846 328.91 11.813C328.91 12.6414 329.582 13.313 330.41 13.313Z" fill="#F0E79F"/>
<path id="Vector_14" d="M330.41 12.813C330.962 12.813 331.41 12.3653 331.41 11.813C331.41 11.2607 330.962 10.813 330.41 10.813C329.858 10.813 329.41 11.2607 329.41 11.813C329.41 12.3653 329.858 12.813 330.41 12.813Z" stroke="#707070"/>
</g>
</g>
</g>
</g>
<defs>
<linearGradient id="paint0_linear" x1="114.777" y1="360.211" x2="114.777" y2="274.641" gradientUnits="userSpaceOnUse">
<stop stop-color="#808080" stop-opacity="0.251"/>
<stop offset="0.535" stop-color="#808080" stop-opacity="0.122"/>
<stop offset="1" stop-color="#808080" stop-opacity="0.102"/>
</linearGradient>
<linearGradient id="paint1_linear" x1="115.546" y1="312.047" x2="115.546" y2="206.029" gradientUnits="userSpaceOnUse">
<stop stop-color="#808080" stop-opacity="0.251"/>
<stop offset="0.535" stop-color="#808080" stop-opacity="0.122"/>
<stop offset="1" stop-color="#808080" stop-opacity="0.102"/>
</linearGradient>
<linearGradient id="paint2_linear" x1="115.29" y1="265.422" x2="115.29" y2="166.322" gradientUnits="userSpaceOnUse">
<stop stop-color="#808080" stop-opacity="0.251"/>
<stop offset="0.535" stop-color="#808080" stop-opacity="0.122"/>
<stop offset="1" stop-color="#808080" stop-opacity="0.102"/>
</linearGradient>
<linearGradient id="paint3_linear" x1="114.778" y1="218.787" x2="114.778" y2="130.313" gradientUnits="userSpaceOnUse">
<stop stop-color="#808080" stop-opacity="0.251"/>
<stop offset="0.535" stop-color="#808080" stop-opacity="0.122"/>
<stop offset="1" stop-color="#808080" stop-opacity="0.102"/>
</linearGradient>
<linearGradient id="paint4_linear" x1="114.777" y1="175.749" x2="114.777" y2="98.386" gradientUnits="userSpaceOnUse">
<stop stop-color="#808080" stop-opacity="0.251"/>
<stop offset="0.535" stop-color="#808080" stop-opacity="0.122"/>
<stop offset="1" stop-color="#808080" stop-opacity="0.102"/>
</linearGradient>
<linearGradient id="paint5_linear" x1="115.289" y1="134.244" x2="115.289" y2="65.071" gradientUnits="userSpaceOnUse">
<stop stop-color="#808080" stop-opacity="0.251"/>
<stop offset="0.535" stop-color="#808080" stop-opacity="0.122"/>
<stop offset="1" stop-color="#808080" stop-opacity="0.102"/>
</linearGradient>
<linearGradient id="paint6_linear" x1="130.621" y1="230.223" x2="134.469" y2="230.223" gradientUnits="userSpaceOnUse">
<stop stop-color="#808080" stop-opacity="0.251"/>
<stop offset="0.535" stop-color="#808080" stop-opacity="0.122"/>
<stop offset="1" stop-color="#808080" stop-opacity="0.102"/>
</linearGradient>
<linearGradient id="paint7_linear" x1="276.91" y1="469.493" x2="285.754" y2="469.493" gradientUnits="userSpaceOnUse">
<stop offset="0.02" stop-color="#FDEA00"/>
<stop offset="0.51" stop-color="#FFD900"/>
<stop offset="1" stop-color="#FCC700"/>
</linearGradient>
<linearGradient id="paint8_linear" x1="289.728" y1="478.118" x2="295.993" y2="478.118" gradientUnits="userSpaceOnUse">
<stop offset="0.02" stop-color="#FDEA00"/>
<stop offset="0.51" stop-color="#FFD900"/>
<stop offset="1" stop-color="#FCC700"/>
</linearGradient>
<linearGradient id="paint9_linear" x1="297.735" y1="464.513" x2="303.461" y2="464.513" gradientUnits="userSpaceOnUse">
<stop offset="0.02" stop-color="#FDEA00"/>
<stop offset="0.51" stop-color="#FFD900"/>
<stop offset="1" stop-color="#FCC700"/>
</linearGradient>
<linearGradient id="paint10_linear" x1="308.91" y1="443.618" x2="317.014" y2="443.618" gradientUnits="userSpaceOnUse">
<stop offset="0.02" stop-color="#FDEA00"/>
<stop offset="0.51" stop-color="#FFD900"/>
<stop offset="1" stop-color="#FCC700"/>
</linearGradient>
<linearGradient id="paint11_linear" x1="298.366" y1="463.682" x2="301.91" y2="463.682" gradientUnits="userSpaceOnUse">
<stop offset="0.02" stop-color="#FDEA00"/>
<stop offset="0.51" stop-color="#FFD900"/>
<stop offset="1" stop-color="#FCC700"/>
</linearGradient>
<linearGradient id="paint12_linear" x1="300.954" y1="462.683" x2="304.073" y2="462.683" gradientUnits="userSpaceOnUse">
<stop offset="0.02" stop-color="#FDEA00"/>
<stop offset="0.51" stop-color="#FFD900"/>
<stop offset="1" stop-color="#FCC700"/>
</linearGradient>
<linearGradient id="paint13_linear" x1="291.855" y1="469.406" x2="302.855" y2="469.406" gradientUnits="userSpaceOnUse">
<stop offset="0.02" stop-color="#FDEA00"/>
<stop offset="0.51" stop-color="#FFD900"/>
<stop offset="1" stop-color="#FCC700"/>
</linearGradient>
<linearGradient id="paint14_linear" x1="268.832" y1="457.419" x2="274.778" y2="457.419" gradientUnits="userSpaceOnUse">
<stop offset="0.02" stop-color="#FDEA00"/>
<stop offset="0.51" stop-color="#FFD900"/>
<stop offset="1" stop-color="#FCC700"/>
</linearGradient>
<linearGradient id="paint15_linear" x1="286.955" y1="479.204" x2="294.996" y2="479.204" gradientUnits="userSpaceOnUse">
<stop offset="0.02" stop-color="#FDEA00"/>
<stop offset="0.51" stop-color="#FFD900"/>
<stop offset="1" stop-color="#FCC700"/>
</linearGradient>
<linearGradient id="paint16_linear" x1="267.786" y1="456.309" x2="276.684" y2="456.309" gradientUnits="userSpaceOnUse">
<stop offset="0.02" stop-color="#FDEA00"/>
<stop offset="0.51" stop-color="#FFD900"/>
<stop offset="1" stop-color="#FCC700"/>
</linearGradient>
<linearGradient id="paint17_linear" x1="275.897" y1="468.138" x2="285.857" y2="468.138" gradientUnits="userSpaceOnUse">
<stop offset="0.02" stop-color="#FDEA00"/>
<stop offset="0.51" stop-color="#FFD900"/>
<stop offset="1" stop-color="#FCC700"/>
</linearGradient>
<linearGradient id="paint18_linear" x1="287.91" y1="474.107" x2="296.167" y2="474.107" gradientUnits="userSpaceOnUse">
<stop offset="0.02" stop-color="#FDEA00"/>
<stop offset="0.51" stop-color="#FFD900"/>
<stop offset="1" stop-color="#FCC700"/>
</linearGradient>
<linearGradient id="paint19_linear" x1="298.864" y1="464.225" x2="302.122" y2="464.225" gradientUnits="userSpaceOnUse">
<stop offset="0.02" stop-color="#FDEA00"/>
<stop offset="0.51" stop-color="#FFD900"/>
<stop offset="1" stop-color="#FCC700"/>
</linearGradient>
<linearGradient id="paint20_linear" x1="297.602" y1="464.891" x2="303.332" y2="464.891" gradientUnits="userSpaceOnUse">
<stop offset="0.02" stop-color="#FDEA00"/>
<stop offset="0.51" stop-color="#FFD900"/>
<stop offset="1" stop-color="#FCC700"/>
</linearGradient>
<linearGradient id="paint21_linear" x1="304.927" y1="453.086" x2="315.378" y2="453.086" gradientUnits="userSpaceOnUse">
<stop offset="0.02" stop-color="#FDEA00"/>
<stop offset="0.51" stop-color="#FFD900"/>
<stop offset="1" stop-color="#FCC700"/>
</linearGradient>
<linearGradient id="paint22_linear" x1="287.905" y1="477.759" x2="295.153" y2="477.759" gradientUnits="userSpaceOnUse">
<stop offset="0.02" stop-color="#FDEA00"/>
<stop offset="0.51" stop-color="#FFD900"/>
<stop offset="1" stop-color="#FCC700"/>
</linearGradient>
<linearGradient id="paint23_linear" x1="263.786" y1="437.893" x2="278.91" y2="437.893" gradientUnits="userSpaceOnUse">
<stop offset="0.02" stop-color="#FDEA00"/>
<stop offset="0.51" stop-color="#FFD900"/>
<stop offset="1" stop-color="#FCC700"/>
</linearGradient>
<linearGradient id="paint24_linear" x1="275.937" y1="470.16" x2="283.263" y2="470.16" gradientUnits="userSpaceOnUse">
<stop offset="0.02" stop-color="#FDEA00"/>
<stop offset="0.51" stop-color="#FFD900"/>
<stop offset="1" stop-color="#FCC700"/>
</linearGradient>
<linearGradient id="paint25_linear" x1="305.91" y1="446.632" x2="316.564" y2="446.632" gradientUnits="userSpaceOnUse">
<stop offset="0.02" stop-color="#FDEA00"/>
<stop offset="0.51" stop-color="#FFD900"/>
<stop offset="1" stop-color="#FCC700"/>
</linearGradient>
<linearGradient id="paint26_linear" x1="300.614" y1="462.529" x2="307.207" y2="462.529" gradientUnits="userSpaceOnUse">
<stop offset="0.02" stop-color="#FDEA00"/>
<stop offset="0.51" stop-color="#FFD900"/>
<stop offset="1" stop-color="#FCC700"/>
</linearGradient>
<linearGradient id="paint27_linear" x1="280.91" y1="478.293" x2="293.875" y2="478.293" gradientUnits="userSpaceOnUse">
<stop offset="0.02" stop-color="#FDEA00"/>
<stop offset="0.51" stop-color="#FFD900"/>
<stop offset="1" stop-color="#FCC700"/>
</linearGradient>
<linearGradient id="paint28_linear" x1="287.884" y1="479.621" x2="297.137" y2="479.621" gradientUnits="userSpaceOnUse">
<stop offset="0.02" stop-color="#FDEA00"/>
<stop offset="0.51" stop-color="#FFD900"/>
<stop offset="1" stop-color="#FCC700"/>
</linearGradient>
<linearGradient id="paint29_linear" x1="291.91" y1="478.476" x2="301.91" y2="478.476" gradientUnits="userSpaceOnUse">
<stop offset="0.02" stop-color="#FDEA00"/>
<stop offset="0.51" stop-color="#FFD900"/>
<stop offset="1" stop-color="#FCC700"/>
</linearGradient>
<linearGradient id="paint30_linear" x1="308.517" y1="446.185" x2="317.91" y2="446.185" gradientUnits="userSpaceOnUse">
<stop offset="0.02" stop-color="#FDEA00"/>
<stop offset="0.51" stop-color="#FFD900"/>
<stop offset="1" stop-color="#FCC700"/>
</linearGradient>
<linearGradient id="paint31_linear" x1="267.91" y1="454.45" x2="274.282" y2="454.45" gradientUnits="userSpaceOnUse">
<stop offset="0.02" stop-color="#FDEA00"/>
<stop offset="0.51" stop-color="#FFD900"/>
<stop offset="1" stop-color="#FCC700"/>
</linearGradient>
<linearGradient id="paint32_linear" x1="274.162" y1="470.093" x2="280.002" y2="470.093" gradientUnits="userSpaceOnUse">
<stop offset="0.02" stop-color="#FDEA00"/>
<stop offset="0.51" stop-color="#FFD900"/>
<stop offset="1" stop-color="#FCC700"/>
</linearGradient>
<linearGradient id="paint33_linear" x1="287.9" y1="478.657" x2="294.742" y2="478.657" gradientUnits="userSpaceOnUse">
<stop offset="0.02" stop-color="#FDEA00"/>
<stop offset="0.51" stop-color="#FFD900"/>
<stop offset="1" stop-color="#FCC700"/>
</linearGradient>
<linearGradient id="paint34_linear" x1="300.013" y1="464.945" x2="304.75" y2="464.945" gradientUnits="userSpaceOnUse">
<stop offset="0.02" stop-color="#FDEA00"/>
<stop offset="0.51" stop-color="#FFD900"/>
<stop offset="1" stop-color="#FCC700"/>
</linearGradient>
<linearGradient id="paint35_linear" x1="306.258" y1="450.338" x2="315.92" y2="450.338" gradientUnits="userSpaceOnUse">
<stop offset="0.02" stop-color="#FDEA00"/>
<stop offset="0.51" stop-color="#FFD900"/>
<stop offset="1" stop-color="#FCC700"/>
</linearGradient>
<linearGradient id="paint36_linear" x1="265.878" y1="440.846" x2="268.91" y2="440.846" gradientUnits="userSpaceOnUse">
<stop offset="0.02" stop-color="#FDEA00"/>
<stop offset="0.51" stop-color="#FFD900"/>
<stop offset="1" stop-color="#FCC700"/>
</linearGradient>
<linearGradient id="paint37_linear" x1="274.909" y1="470.067" x2="285.034" y2="470.067" gradientUnits="userSpaceOnUse">
<stop offset="0.02" stop-color="#FDEA00"/>
<stop offset="0.51" stop-color="#FFD900"/>
<stop offset="1" stop-color="#FCC700"/>
</linearGradient>
<linearGradient id="paint38_linear" x1="290.91" y1="477.659" x2="300.916" y2="477.659" gradientUnits="userSpaceOnUse">
<stop offset="0.02" stop-color="#FDEA00"/>
<stop offset="0.51" stop-color="#FFD900"/>
<stop offset="1" stop-color="#FCC700"/>
</linearGradient>
<linearGradient id="paint39_linear" x1="299.885" y1="466.038" x2="308.639" y2="466.038" gradientUnits="userSpaceOnUse">
<stop offset="0.02" stop-color="#FDEA00"/>
<stop offset="0.51" stop-color="#FFD900"/>
<stop offset="1" stop-color="#FCC700"/>
</linearGradient>
<linearGradient id="paint40_linear" x1="291.433" y1="428.994" x2="291.433" y2="487.063" gradientUnits="userSpaceOnUse">
<stop stop-color="#FFE500"/>
<stop offset="0.34" stop-color="#ED6A06"/>
<stop offset="0.44" stop-color="#E96209"/>
<stop offset="0.59" stop-color="#DD4C0F"/>
<stop offset="0.77" stop-color="#CA281B"/>
</linearGradient>
<linearGradient id="paint41_linear" x1="291.487" y1="428.994" x2="291.487" y2="479.671" gradientUnits="userSpaceOnUse">
<stop offset="0.1" stop-color="#FDEA00"/>
<stop offset="0.45" stop-color="#F59A00"/>
<stop offset="1" stop-color="#EF7A00"/>
</linearGradient>
<linearGradient id="paint42_linear" x1="291.805" y1="426.135" x2="291.805" y2="453.32" gradientUnits="userSpaceOnUse">
<stop offset="0.02" stop-color="#FDEA00"/>
<stop offset="0.51" stop-color="#FFD900"/>
<stop offset="1" stop-color="#FCC700"/>
</linearGradient>
<linearGradient id="paint43_linear" x1="291.934" y1="425.078" x2="291.934" y2="440.069" gradientUnits="userSpaceOnUse">
<stop offset="0.02" stop-color="white"/>
<stop offset="0.07" stop-color="#FEFCE0"/>
<stop offset="0.16" stop-color="#FDF8B1"/>
<stop offset="0.25" stop-color="#FCF487"/>
<stop offset="0.35" stop-color="#FBF064"/>
<stop offset="0.45" stop-color="#FAEE47"/>
<stop offset="0.56" stop-color="#FAEC31"/>
<stop offset="0.68" stop-color="#F9EA21"/>
<stop offset="0.81" stop-color="#F9E918"/>
<stop offset="1" stop-color="#F9E915"/>
</linearGradient>
</defs>
</svg>
